<?xml version="1.0" encoding="utf-8"?>
<!-- Generator: Adobe Illustrator 28.2.0, SVG Export Plug-In . SVG Version: 6.00 Build 0)  -->
<svg version="1.1" id="Layer_1" xmlns="http://www.w3.org/2000/svg" xmlns:xlink="http://www.w3.org/1999/xlink" x="0px" y="0px"
	 viewBox="0 0 16 16" style="enable-background:new 0 0 16 16;" xml:space="preserve">
<style type="text/css">
	.st0{fill:#FFFFFF;}
	.st1{fill:none;stroke:#000000;stroke-width:0;stroke-linecap:round;stroke-linejoin:round;}
</style>
<g>
	<polygon class="st0" points="6.82,3.63 6.82,3.59 6.91,3.59 13.56,0.8 0.76,0.8 0.76,6.17 	"/>
	<polygon class="st0" points="6.82,4.5 0.76,7.04 0.76,15.2 6.82,15.2 	"/>
	<path class="st0" d="M8.93,3.62v4.18c0.58-0.46,1.27-0.7,2.08-0.7c1.14,0,3.06,0.47,3.06,3.59v4.51h1.09V1L8.93,3.62z"/>
	<path class="st0" d="M11.97,10.99c0-1.97-0.95-1.97-1.35-1.97c-0.47,0-0.86,0.18-1.19,0.55c-0.34,0.39-0.51,0.88-0.51,1.5v4.13
		h3.05V10.99z"/>
	<path d="M-0.04,0v16h16V0H-0.04z M13.56,0.8L6.91,3.59H6.82v0.04L0.76,6.17V0.8H13.56z M0.76,7.04L6.82,4.5v10.7H0.76V7.04z
		 M8.93,11.07c0-0.63,0.17-1.12,0.51-1.5c0.33-0.37,0.72-0.55,1.19-0.55c0.4,0,1.35,0,1.35,1.97v4.21H8.93V11.07z M0.36,6.78
		L0.36,6.78L0.36,6.78z M14.07,15.2v-4.51c0-3.13-1.92-3.59-3.06-3.59c-0.81,0-1.51,0.23-2.08,0.7V3.62L15.16,1V15.2H14.07z"/>
	<line class="st1" x1="0.36" y1="6.78" x2="0.36" y2="6.78"/>
</g>
</svg>
