<?xml version="1.0" encoding="UTF-8"?>
<svg id="_레이어_1" data-name="레이어 1" xmlns="http://www.w3.org/2000/svg" version="1.1" viewBox="0 0 16 16">
  <defs>
    <style>
      .cls-1 {
        fill: #009844;
      }

      .cls-1, .cls-2, .cls-3 {
        stroke-width: 0px;
      }

      .cls-2 {
        fill: #fff;
      }

      .cls-3 {
        fill: #004da0;
      }
    </style>
  </defs>
  <circle class="cls-2" cx="7.93" cy="8.11" r="7.52"/>
  <path class="cls-3" d="M2.23,6.96c-.04.21-.18.35-.36.32-.19-.04-.28-.24-.24-.42,0-.04.02-.08.05-.12-.02.14.04.31.2.34.15.03.22-.06.25-.19,0-.04.01-.08.01-.12l-.75-.15c-.09-.02-.16-.03-.23.04h0s.07-.33.07-.33h0c.01.09.14.1.21.12l.62.12c.07.02.19.05.24-.03h0s-.08.4-.08.4h0Z"/>
  <path class="cls-3" d="M1.13,8.09c-.1-.08-.13-.21-.13-.33,0-.11.04-.23.13-.3.1-.09.21-.08.33-.07h.45c.08.02.2.03.23-.05h0v.32h-.01c-.03-.08-.15-.08-.23-.08h-.45c-.22-.02-.33.07-.34.24,0,.09.03.19.11.25.05.04.09.04.15.04l.51.02c.08,0,.2.02.23-.07h0s-.01.32-.01.32h0c-.03-.08-.15-.08-.23-.08l-.64-.02c-.08,0-.2-.02-.23.07h0s0-.25,0-.25h.11Z"/>
  <path class="cls-3" d="M2.02,9.11c.06-.07.08-.18.07-.27-.01-.09-.06-.21-.18-.19-.23.03-.15.6-.46.64-.18.02-.37-.14-.4-.4-.01-.1-.01-.2.01-.3l.2-.08c-.07.11-.11.25-.09.38.01.09.09.23.2.21.26-.03.14-.6.49-.64.21-.03.32.18.34.38.01.08.01.17,0,.25l-.19.02h0Z"/>
  <path class="cls-3" d="M1.84,9.93l-.09-.32.45.04-.36.27h0ZM1.73,10.01l-.2.15c-.1.08-.11.09-.17.02h0s.1.33.1.33h0c.02-.11.1-.16.19-.22l.74-.57-.07-.25h0c0,.08-.08.07-.14.07l-.75-.08c-.1,0-.2-.01-.27-.09h0s.08.3.08.3h0c0-.09.06-.09.16-.08l.25.02.12.41h0Z"/>
  <path class="cls-3" d="M1.76,10.67c-.09.04-.15.07-.15.17h0s-.13-.26-.13-.26h0c.09.05.15.02.23-.02l.6-.29c.09-.04.15-.07.15-.17h0s.11.22.11.22h0s-.02.03-.03.04l-.02.04-.43.89.57-.28c.09-.04.15-.07.15-.17h0s.13.26.13.26h0c-.08-.05-.14-.03-.23.02l-.85.41c-.02-.12.01-.19.06-.3l.41-.83-.59.28h0Z"/>
  <path class="cls-3" d="M2.71,12.3c-.07.06-.12.11-.1.21h0s-.2-.22-.2-.22h0c.1.03.15-.02.22-.08l.5-.45c.07-.06.12-.11.1-.21h0s.17.18.17.18h0s-.01.03-.02.05v.04s-.17.97-.17.97l.47-.42c.07-.06.12-.11.1-.2h0s.2.21.2.21h0c-.1-.03-.15.02-.22.08l-.7.63c-.05-.12-.04-.19-.02-.31l.16-.91-.48.43h0Z"/>
  <path class="cls-3" d="M4.1,13.22l-.26-.2.39-.23-.13.43h0ZM4.06,13.35l-.07.24c-.04.12-.04.14-.13.12h0s.27.21.27.21h0c-.05-.1-.01-.19.02-.29l.25-.89-.21-.16h0c.05.07-.02.11-.08.14l-.65.38c-.09.05-.17.11-.28.09h0s.24.19.24.19h0c-.04-.08,0-.11.08-.16l.22-.13.34.26h0Z"/>
  <path class="cls-3" d="M4.63,13.96c-.05.08-.08.14-.03.23h0s-.29-.16-.29-.16h0c.09.01.14-.1.18-.17l.38-.64-.13-.07c-.06-.04-.14-.06-.21-.04h0s.15-.14.15-.14h0s.03.03.05.04l.04.02.54.31s.05.03.07.03h0s-.15.15-.15.15h0c.01-.06-.04-.11-.09-.13l-.13-.07-.39.66h0Z"/>
  <path class="cls-3" d="M5.42,13.64c.03-.07.09-.18.03-.24h0s.29.12.29.12h0c-.09,0-.13.12-.16.19l-.26.58c-.03.07-.09.18-.03.24h0s-.29-.12-.29-.12h0c.09,0,.13-.12.16-.18l.26-.58h0Z"/>
  <path class="cls-3" d="M6.36,13.83c.26.07.34.34.28.57-.07.24-.28.38-.52.31-.26-.07-.35-.35-.29-.57.07-.24.28-.38.53-.31h0ZM6.4,13.71c-.34-.1-.68.08-.76.39-.09.33.11.63.43.72.32.09.66-.07.76-.4.08-.29-.09-.61-.43-.71h0Z"/>
  <path class="cls-3" d="M7.1,14.78c0,.09-.01.16.07.22h0s-.3-.02-.3-.02h0c.09-.05.1-.12.11-.21l.05-.66c0-.09.01-.16-.07-.22h0s.25.01.25.01h0s.01.03.02.05l.02.04.56.82.05-.63c0-.09.01-.16-.07-.22h0s.3.02.3.02h0c-.09.05-.1.12-.1.21l-.07.93c-.12-.05-.16-.11-.23-.21l-.52-.77-.05.64h0Z"/>
  <path class="cls-3" d="M8.77,14.47l-.33.03.12-.44.21.4h0ZM8.83,14.59l.11.22c.06.11.07.13,0,.17h0s.34-.03.34-.03h0c-.1-.04-.14-.13-.19-.22l-.44-.82-.26.03h0c.08.02.06.09.04.16l-.21.72c-.03.1-.05.19-.14.25h0s.31-.03.31-.03h0c-.08-.03-.08-.08-.05-.17l.06-.24.42-.04h0Z"/>
  <path class="cls-3" d="M9.84,14.68c.11-.02.2-.09.26-.17h0s-.03.24-.03.24l-.67.18h0c.07-.06.03-.17.01-.25l-.16-.61c-.02-.07-.04-.2-.13-.2h0s.31-.09.31-.09h0c-.07.06-.03.17-.01.25l.19.7.22-.04h0Z"/>
  <path class="cls-3" d="M11.5,13.96c-.02.12-.12.22-.22.28-.1.05-.22.08-.32.04-.13-.04-.18-.14-.23-.25l-.22-.39c-.04-.07-.08-.18-.18-.17h0s.28-.16.28-.16h0c-.06.07,0,.18.05.24l.22.39c.11.19.24.24.39.16.08-.04.15-.12.16-.22,0-.06-.01-.1-.04-.15l-.24-.44c-.04-.07-.09-.18-.18-.17h0s.28-.16.28-.16h0c-.06.07,0,.17.05.24l.3.55c.04.07.09.18.18.16h0s-.22.12-.22.12l-.05-.1h0Z"/>
  <path class="cls-3" d="M12.06,13.46c.06.07.1.12.2.11h0s-.23.19-.23.19h0c.03-.1,0-.15-.07-.22l-.43-.51c-.06-.07-.1-.12-.2-.1h0s.19-.16.19-.16h0s.03.01.05.02h.04s.97.21.97.21l-.41-.49c-.06-.07-.1-.12-.2-.11h0s.23-.19.23-.19h0c-.03.1,0,.15.07.22l.61.72c-.12.05-.19.04-.31,0l-.91-.19.42.5h0Z"/>
  <path class="cls-3" d="M12.5,12.17c-.06-.05-.14-.14-.22-.1h0s.21-.24.21-.24h0c-.03.09.07.16.12.21l.47.42c.06.05.14.14.22.1h0s-.21.24-.21.24h0c.03-.09-.07-.16-.12-.21l-.47-.42h0Z"/>
  <path class="cls-3" d="M13.21,11.35c-.07-.11-.15-.23-.25-.17h0s.14-.21.14-.21l.7,1.02c-.13.05-.16.08-.3.04l-.71-.18c-.09-.02-.18-.06-.27-.03h0s.14-.2.14-.2h.02s.12.05.16.06l.75.2-.37-.53h0Z"/>
  <path class="cls-3" d="M14.09,11.12l.11-.18c.06-.1.08-.21.05-.32h0s.17.16.17.16l-.31.63h0c.01-.09-.11-.14-.17-.17l-.57-.28c-.07-.03-.18-.1-.24-.03h0s.24-.48.24-.48c.01-.03.03-.05.03-.07h0s.18.08.18.08h0c-.08.03-.11.08-.15.15-.03.05-.05.11-.07.16l.28.14.09-.18s.02-.05.02-.07h0s.16.07.16.07h0c-.06,0-.08.07-.11.12l-.05.11.36.17h0Z"/>
  <path class="cls-3" d="M13.56,9.84c.07-.21.22-.29.37-.24.14.05.21.2.2.34l.36-.13c.11-.04.22-.11.31-.18l-.05.15c-.03.08-.07.13-.14.16l-.31.12-.27.07c.02-.13.01-.3-.14-.35-.12-.04-.22.04-.25.15-.01.04-.02.07-.02.11l.72.23c.07.02.19.07.24,0h0s-.1.31-.1.31h0c0-.09-.13-.12-.2-.14l-.6-.19c-.07-.02-.19-.07-.24,0h0s.13-.38.13-.38h0Z"/>
  <path class="cls-3" d="M14.01,8.77c-.08.05-.13.15-.15.24-.02.09,0,.22.12.24.23.04.32-.53.63-.48.18.03.31.24.27.5-.02.1-.05.2-.1.29h-.22c.1-.07.18-.2.2-.32.02-.09-.02-.25-.13-.26-.26-.04-.31.53-.66.48-.21-.03-.25-.26-.22-.46.01-.08.04-.16.08-.24l.19.03h0Z"/>
  <path class="cls-3" d="M14.06,8.48c-.08,0-.2-.02-.24.06h0l.02-.32h0c.03.08.15.08.23.09l.63.04c.08,0,.2.02.24-.06h0l-.02.32h0c-.03-.09-.15-.08-.23-.09l-.63-.04h0Z"/>
  <path class="cls-3" d="M14.7,7.62c.1,0,.16,0,.21-.1h0s.02.33.02.33h0c-.04-.08-.16-.07-.23-.06l-.75.04v.15c.01.07.03.15.09.19h0s-.2-.04-.2-.04h0s0-.05,0-.07v-.04s-.04-.62-.04-.62c0-.03,0-.05-.02-.08h0s.2.04.2.04h0c-.06.03-.06.1-.06.15v.15s.78-.04.78-.04h0Z"/>
  <path class="cls-3" d="M14.55,6.62c.1-.02.15-.03.19-.13h0s.07.32.07.32h0c-.06-.07-.16-.04-.24-.02l-.24.05-.39.36c-.06.06-.11.1-.14.19l-.03-.15c-.01-.05,0-.1.02-.13l.38-.35-.35-.14s-.13-.04-.16.06h0s-.06-.29-.06-.29l.69.28.26-.05h0Z"/>
  <path class="cls-3" d="M2.24,5.43c0,.08-.07.14-.15.14s-.15-.07-.15-.14.07-.14.15-.14.15.06.15.14h0Z"/>
  <path class="cls-3" d="M14.02,5.43c0,.08-.07.14-.15.14s-.15-.07-.15-.14.07-.14.15-.14.15.06.15.14h0Z"/>
  <path class="cls-3" d="M8.41,1.3h-.14v-.34h-.17v.89c-.06.06-.16.06-.16.06h-.48s-.01,0-.01-.01v-.69s.51,0,.51,0v-.14h-.69v.83c0,.08.07.15.15.15h.51s.08,0,.16-.04v.48h.17v-1.05h.14v1.05h.17V.96h-.17v.34h0Z"/>
  <polygon class="cls-3" points="2.86 4.54 3.29 4.07 3.68 4.41 3.79 4.28 3.41 3.94 3.84 3.46 3.74 3.37 2.76 4.45 2.86 4.54 2.86 4.54"/>
  <path class="cls-3" d="M2.66,4.13c.06.06.16.05.21-.01l.55-.6c.06-.06.05-.16-.01-.21l-.43-.38-.11.13.17.16-.52.57-.17-.16-.11.13.43.38h0ZM3.14,3.3l.15.14s0,.01,0,.02l-.5.55s-.01,0-.02,0l-.15-.14.52-.57h0Z"/>
  <polygon class="cls-3" points="5.57 1.38 5.41 1.44 5.87 2.45 6.02 2.39 5.77 1.81 5.97 1.72 5.92 1.6 5.71 1.69 5.57 1.38 5.57 1.38"/>
  <path class="cls-3" d="M5.32,2.97l-.17-.38-.16.07.17.38c.03.08.12.11.2.08l.82-.37-.06-.12-.79.35s-.01,0-.02,0h0Z"/>
  <path class="cls-3" d="M4.94,1.85l-.06-.14-.16.07.06.14c.18.4-.17.65-.19.67l.15.06c.08-.07.24-.24.26-.45.17.13.41.12.51.11l.06-.15s-.45.09-.63-.3h0Z"/>
  <polygon class="cls-3" points="13.02 3.83 12.9 3.71 12.46 4.12 12.32 3.97 12.76 3.56 12.64 3.44 12.21 3.85 11.96 3.58 11.86 3.68 12.84 4.71 12.94 4.62 12.58 4.24 13.02 3.83 13.02 3.83"/>
  <path class="cls-3" d="M13.14,4c-.18.16-.32.22-.32.22l.12.12s.14-.05.32-.22l.44-.41h0s0,0,0,0l-.77-.82-.1.09.66.7-.34.32h0Z"/>
  <polygon class="cls-3" points="11.46 2.32 11.51 2.19 11.3 2.1 11.44 1.79 11.28 1.72 10.92 2.55 11.08 2.61 11.25 2.23 11.46 2.32 11.46 2.32"/>
  <polygon class="cls-3" points="11.05 2.67 10.06 2.25 10 2.37 10.84 2.73 10.67 3.12 10.83 3.19 11.05 2.68 11.05 2.68 11.05 2.67 11.05 2.67"/>
  <path class="cls-3" d="M11.1,1.79l-.4-.17.07-.16-.16-.07-.07.16-.4-.17-.06.13.19.08c-.07.03-.13.09-.16.16-.08.18.02.39.22.47.2.09.42.01.5-.17.03-.07.03-.15.01-.23l.19.08.06-.13h0ZM10.4,2.11c-.11-.05-.16-.17-.11-.28.05-.11.17-.16.29-.11.11.05.16.17.11.28-.05.11-.17.16-.28.11h0Z"/>
  <path class="cls-3" d="M15.51,8.11c0,4.16-3.37,7.54-7.54,7.54S.44,12.27.44,8.11,3.82.57,7.98.57s7.54,3.37,7.54,7.54h0ZM7.98.68C3.87.68.54,4,.54,8.11s3.33,7.43,7.43,7.43,7.43-3.33,7.43-7.43S12.08.68,7.98.68h0Z"/>
  <path class="cls-3" d="M13.44,8.11c0,3.02-2.44,5.46-5.46,5.46s-5.46-2.45-5.46-5.46S4.96,2.65,7.98,2.65s5.46,2.44,5.46,5.46h0ZM7.98,2.75c-2.96,0-5.36,2.4-5.36,5.36s2.4,5.36,5.36,5.36,5.36-2.4,5.36-5.36-2.4-5.36-5.36-5.36h0Z"/>
  <path class="cls-1" d="M11.38,11.07h-2.54c-.78,0-.88.52-.88.52-.16-.59-.92-.52-.92-.52h-2.48v-3.63h2.39c.79.01,1.01.64,1.01.64.26-.64,1.08-.64,1.08-.64h2.33s0,3.63,0,3.63h0ZM8.89,7.08c-.7.02-.92.43-.92.43-.22-.43-.89-.43-.89-.43h-2.87v4.35h2.81c.38,0,.52.18.56.31h.78c.13-.33.53-.31.53-.31h2.86v-4.36h-2.86Z"/>
  <path class="cls-1" d="M6.5,9.11h-1.05v1.05h0s1.44,0,1.44,0h0s0,0,0,0v-.69h.37v.69h1.44v-.69h.36v.69h1.44v-.36h-1.04v-.33h1.05v-1.09h-1.44v.73h-.36v-.73h-.39v.73h-.65v-.73h-.39v.73h-.36v-.73h-1.44v.36h1.05v.37h0ZM6.5,9.8h-.65v-.33h.65v.33h0ZM8.31,9.8h-.65v-.33h.65v.33h0ZM9.46,8.74h.65v.37h-.65v-.37h0Z"/>
  <polygon class="cls-3" points="7.76 5.06 8.11 4.95 7.76 4.95 7.76 5.06 7.76 5.06"/>
  <path class="cls-3" d="M7.01,5.56c.13-.13.26-.12.26-.06s-.07.13-.07.13h-.83l-.45-.65h0c-.11-.17-.26-.24-.5-.24h-1.22v1.97c.74,0,2.56,0,2.77,0,.82,0,.98.36.98.36.17-.27.5-.36,1.01-.36h2.77v-1.97h-1.23c-.24,0-.38.07-.5.24h0l-.46.65h-.69v-.58l.47-.46h-.48s.12-.11.12-.11h-.98c-.2,0-.35.08-.41.19h-.35c-.32,0-.43.18-.37.41l.14.47h0ZM11.38,6.34h-2.31c-.62,0-.9.04-1.1.25-.21-.2-.38-.25-.99-.25h-2.4v-1.24h.76c.07,0,.14.02.18.04.03.02.08.05.12.11.05.07.5.73.5.73h1.29s.12-.25.19-.42c.08-.17.05-.3-.11-.31-.13-.01-.22.02-.23.08l-.06-.2c-.03-.1,0-.17.13-.17h.42s0-.14.24-.14h.69l-.19.18v.98h1.34s.43-.66.48-.73c.04-.05.09-.09.12-.11.04-.02.1-.04.18-.04h.77v1.24h0Z"/>
  <path class="cls-1" d="M7.37,10.53c.05-.02.1-.05.12-.1h0v.32s0,.06.03.08h0s-.12,0-.12,0h0s.03-.05.03-.08v-.22h-.07Z"/>
  <path class="cls-1" d="M7.67,10.81c.09-.02.18-.1.18-.2,0-.06-.03-.12-.1-.12-.05,0-.08.04-.08.09,0,.05.04.09.09.09.02,0,.04,0,.06-.02l-.04.05s-.03,0-.05,0c-.07,0-.12-.05-.12-.12,0-.08.07-.14.15-.14.09,0,.15.07.15.16,0,.06-.04.13-.09.17-.05.04-.11.06-.18.07l.03-.04h0Z"/>
  <path class="cls-1" d="M8.13,10.71c-.05,0-.09,0-.12,0l.12-.21v.21h0ZM8.13,10.76v.02s0,.05-.03.06h0s.11,0,.11,0h0s-.03-.04-.03-.07h0s.05-.01.05-.01l.03-.07s-.05.02-.07.02v-.25h-.08l-.18.3h.2Z"/>
  <path class="cls-1" d="M8.54,10.48s-.08.04-.11.06c-.04.04-.06.08-.06.14,0,.06.03.12.1.12.05,0,.08-.04.08-.09,0-.06-.03-.1-.09-.1-.02,0-.04,0-.06.02l.04-.05s.03-.01.05-.01c.07,0,.12.05.12.12,0,.08-.07.14-.15.14-.09,0-.15-.07-.15-.16,0-.14.14-.23.26-.24l-.03.04h0Z"/>
</svg>