<svg width="168" height="42" viewBox="0 0 168 42" fill="none" xmlns="http://www.w3.org/2000/svg">
<g clip-path="url(#clip0_307_1349)">
<path d="M2.07256 16.818C2.2312 16.6327 2.37927 16.6645 2.63838 16.7174L3.44217 16.8762L3.39458 16.9397C3.32584 17.0349 3.27824 17.1461 3.25709 17.2783C3.19363 17.5853 3.24652 17.8922 3.40516 18.1303C3.53207 18.3261 3.72244 18.4531 3.94983 18.4955C4.008 18.5061 4.06088 18.5114 4.11905 18.5114C4.31471 18.5114 4.48922 18.4426 4.64257 18.2997C4.82237 18.1356 4.94928 17.8869 5.01274 17.5747L5.23484 16.4846V16.4264L5.14494 16.4158L5.12908 16.4422C5.02331 16.601 4.7642 16.5428 4.57383 16.5057L2.81289 16.1565L2.75472 16.1459C2.56435 16.1088 2.29995 16.0612 2.27351 15.876V15.839L2.16774 15.8125L1.9668 16.8074L2.06198 16.8285L2.08313 16.8021L2.07256 16.818ZM3.48448 16.982L3.49506 16.8867L4.632 17.1143C4.632 17.199 4.61613 17.2889 4.60027 17.3789C4.54739 17.6435 4.38874 17.9451 3.97627 17.8657C3.57966 17.7864 3.4316 17.363 3.48448 16.982Z" fill="#004EA2"/>
<path d="M1.54478 21.3638H1.65054L1.6664 21.332C1.73515 21.1574 1.98369 21.168 2.18464 21.1786L3.99316 21.2421H4.05133C4.24699 21.2421 4.5114 21.2527 4.57485 21.4326L4.59072 21.4749L4.69119 21.4537L4.72292 20.4959H4.62245L4.60658 20.5224C4.53255 20.6917 4.27343 20.6811 4.08306 20.6758L2.6024 20.6229C2.45433 20.6229 2.35386 20.6123 2.23752 20.5224C2.05772 20.3901 1.95196 20.1519 1.96254 19.8874C1.96783 19.6863 2.03128 19.5328 2.14233 19.427C2.28511 19.2947 2.51779 19.2312 2.82978 19.2417L4.06191 19.2788H4.1095C4.30516 19.2788 4.57486 19.2841 4.63831 19.464L4.65946 19.501H4.74936L4.78109 18.5803L4.77051 18.5273H4.68062L4.66475 18.5591C4.59072 18.7337 4.34218 18.7179 4.14123 18.7073L2.81392 18.6649C2.48606 18.6491 2.17406 18.6385 1.8885 18.8819C1.6664 19.0724 1.5342 19.3846 1.51834 19.7392C1.50776 20.0832 1.60824 20.3901 1.78274 20.5912H1.56593L1.53949 21.3638H1.54478Z" fill="#004EA2"/>
<path d="M2.15128 23.771C2.3205 23.9032 2.51616 23.972 2.70653 23.972C2.73826 23.972 2.77528 23.972 2.807 23.9668C3.29351 23.9033 3.45215 23.4005 3.58964 22.9507C3.70069 22.5909 3.80645 22.2469 4.06557 22.2151C4.33526 22.1781 4.46746 22.4533 4.49919 22.702C4.53092 22.9507 4.46218 23.2312 4.31411 23.4111L4.23479 23.5117L4.91695 23.4217V23.3846C4.96455 23.1571 4.96983 22.9137 4.9381 22.6808C4.86936 22.1305 4.56265 21.5219 3.93337 21.596C3.37812 21.6648 3.22476 22.1728 3.08727 22.6226C2.97622 22.9983 2.87575 23.3211 2.57962 23.3635C2.29935 23.4005 2.10898 23.0618 2.07725 22.8184C2.03494 22.4797 2.12484 22.104 2.3205 21.8077L2.4104 21.6701L1.67535 21.9453V21.9717C1.60661 22.2363 1.59603 22.5221 1.63834 22.8184C1.69122 23.21 1.8763 23.554 2.14599 23.7604L2.15128 23.771Z" fill="#004EA2"/>
<path d="M2.86712 27.3104C2.92 27.067 3.10508 26.9241 3.30603 26.7706L5.37367 25.1672L5.40011 25.146L5.17801 24.3681L5.07754 24.3946V24.4316C5.07754 24.4845 5.06167 24.5163 5.03523 24.5427C4.98235 24.5904 4.86073 24.5798 4.75496 24.5692L2.67146 24.3575H2.59742C2.35417 24.3311 2.12149 24.3099 1.95228 24.1247L1.91526 24.1035L1.83594 24.13L2.09505 25.0402L2.19553 25.0084V24.9714C2.2061 24.8761 2.23254 24.8444 2.2537 24.8285C2.30658 24.7809 2.4282 24.7862 2.57627 24.802L3.22671 24.8497L3.52813 25.8922L2.95172 26.3208C2.71905 26.4954 2.71376 26.4954 2.59213 26.3579L2.55512 26.3367L2.4758 26.3684L2.75078 27.3157L2.77722 27.3686L2.85654 27.3368V27.3104H2.86712ZM3.90887 25.6064L3.70263 24.8867L4.73381 24.9873L3.90887 25.6064Z" fill="#004EA2"/>
<path d="M6.90101 28.9469L6.93802 28.9575L7.01734 28.9257L6.61545 28.1002L6.52555 28.1425V28.1743C6.50969 28.4177 6.3722 28.4812 6.13423 28.5976L4.70116 29.2909L5.81166 26.9995L5.86983 26.8936C5.88569 26.8566 5.89627 26.8354 5.92271 26.809L5.97559 26.7878L5.62658 26.084L5.54197 26.1369V26.1634C5.52081 26.4068 5.38332 26.4756 5.15065 26.5867L3.49547 27.3858C3.2628 27.4969 3.12531 27.5657 2.91378 27.4281L2.89263 27.4122L2.80273 27.4493L3.20992 28.2748L3.29981 28.2378V28.206C3.32097 27.9626 3.45317 27.8938 3.68056 27.788L5.16122 27.0683L4.11418 29.2168C3.9714 29.5078 3.88679 29.7142 3.93439 30.0793L3.94496 30.1534L6.34047 28.9945C6.57314 28.8834 6.71063 28.8146 6.91687 28.9522L6.90101 28.9469Z" fill="#004EA2"/>
<path d="M9.71424 32.4759L9.74068 32.4865L9.81471 32.423L9.20129 31.7456L9.12197 31.8038V31.8356C9.18543 32.0737 9.07438 32.169 8.8893 32.3383L7.6889 33.4126L8.11723 30.9042L8.14367 30.7878C8.14367 30.7455 8.14896 30.7243 8.17012 30.6978L8.21771 30.6661L7.68361 30.084L7.61487 30.1528V30.1792C7.67303 30.4174 7.55141 30.5285 7.36633 30.6925L5.99671 31.915C5.81163 32.079 5.69 32.1901 5.44675 32.1108L5.41502 32.1002L5.35156 32.169L5.93325 32.8093L5.98085 32.841L6.03901 32.7828V32.7564C5.98085 32.513 6.09718 32.4124 6.28227 32.2484L7.50382 31.1582L7.09663 33.5078C7.03846 33.8306 7.01202 34.0476 7.16009 34.3863L7.19182 34.4551L9.17485 32.6823C9.3758 32.5024 9.48685 32.4124 9.71424 32.4865V32.4759Z" fill="#004EA2"/>
<path d="M10.9626 33.407L10.3121 32.9043L10.254 32.9943L10.2751 33.026C10.3015 33.0683 10.3121 33.1054 10.3068 33.1371C10.291 33.2059 10.1958 33.2641 10.1059 33.3171L8.29207 34.3701L8.22861 34.4072C8.0118 34.5395 7.82143 34.6506 7.5676 34.603H7.5253L7.48828 34.6824L8.1916 35.2221L8.24448 35.2486L8.28678 35.1639L8.27092 35.1375C8.22333 35.0581 8.22333 35.021 8.22861 34.9946C8.24448 34.9311 8.3238 34.8729 8.47187 34.7829L9.0324 34.4389L9.89436 35.1057L9.6987 35.7354L9.68284 35.7937C9.59823 36.0741 9.59823 36.0741 9.42372 36.0318H9.39199L9.32325 36.1006L10.1535 36.7409L10.2275 36.6721L10.2116 36.6351C10.1059 36.4075 10.1693 36.1853 10.2381 35.9524L10.9678 33.4123L10.9626 33.407ZM9.43959 34.1849L10.3333 33.661L10.0371 34.6453L9.44488 34.1849H9.43959Z" fill="#004EA2"/>
<path d="M12.5953 35.0262L12.9073 35.2009C13.0818 35.3014 13.1506 35.3967 13.1294 35.5025V35.5448L13.1982 35.5872L13.6318 35.1585L13.6688 35.1003L13.6053 35.0686H13.5842C13.526 35.058 13.4679 35.0262 13.4044 34.9945L11.9132 34.1372L11.818 34.0843C11.818 34.0843 11.7915 34.0631 11.781 34.0578C11.7492 34.0367 11.7175 34.0102 11.6963 33.9837L11.6329 33.9414L11.1358 34.4071L11.231 34.46H11.2521C11.4055 34.423 11.5959 34.46 11.781 34.5658L12.0877 34.7405L11.0829 36.4603L11.0512 36.5133C10.956 36.6826 10.8185 36.9101 10.6387 36.8784H10.6017L10.5488 36.9631L11.3843 37.4446L11.4425 37.4658L11.4742 37.3864L11.4637 37.3652C11.342 37.1483 11.4214 37.016 11.5536 36.7937L12.5847 35.0315L12.5953 35.0262Z" fill="#004EA2"/>
<path d="M14.1827 36.0853L14.2038 36.0324C14.2778 35.8525 14.3783 35.6144 14.574 35.6197L14.6163 35.6091L14.6427 35.5244L13.7438 35.1328L13.7067 35.2281L13.7332 35.2545C13.8654 35.3815 13.7649 35.6091 13.6803 35.789L12.9505 37.4348L12.9241 37.493C12.8501 37.6623 12.7549 37.8952 12.5751 37.8952C12.5751 37.8952 12.5645 37.8952 12.5592 37.8952H12.5275L12.4746 37.9851L13.3313 38.3556L13.3842 38.3661L13.4265 38.2868L13.4 38.2603C13.2678 38.128 13.3736 37.9005 13.4582 37.7205L14.1827 36.0853Z" fill="#004EA2"/>
<path d="M17.4551 36.8253C17.233 36.4337 16.8575 36.148 16.3974 36.0262C15.9215 35.8834 15.4297 35.931 15.012 36.1585C14.6259 36.3702 14.3509 36.7089 14.2399 37.1164C14.1183 37.5344 14.1659 37.9578 14.3721 38.3282C14.5942 38.7251 14.9961 39.032 15.4667 39.1643C15.6359 39.212 15.8105 39.2331 15.9744 39.2331C16.7306 39.2331 17.3969 38.7621 17.6031 38.0266C17.7195 37.6244 17.6666 37.1957 17.4551 36.8253ZM16.9685 37.9472C16.7888 38.5928 16.2229 38.9262 15.6042 38.7516C15.3292 38.6775 15.1071 38.5028 14.9644 38.2541C14.8004 37.9631 14.7581 37.5873 14.848 37.2487C15.0014 36.7036 15.4033 36.3914 15.9004 36.3914C16.0114 36.3914 16.1277 36.4073 16.2441 36.439C16.5191 36.5131 16.7306 36.6824 16.8681 36.9206C17.032 37.2116 17.069 37.5873 16.9685 37.9472Z" fill="#004EA2"/>
<path d="M21.0205 36.8203L21.0417 36.7197L20.1691 36.6562H20.1163L20.1057 36.7462L20.1321 36.7621C20.3384 36.8944 20.3278 37.0531 20.3066 37.3071L20.185 38.8947L18.7466 36.7885L18.6832 36.6827C18.6568 36.6509 18.6462 36.6298 18.6356 36.5927L18.6462 36.5451L17.9164 36.4922L17.8582 36.5028V36.5874L17.8794 36.6033C18.0803 36.7409 18.0698 36.8891 18.0539 37.1484L17.9217 38.9688C17.9006 39.2334 17.8794 39.3815 17.6626 39.4874L17.6309 39.5138V39.5985L18.5457 39.6673L18.5616 39.5721L18.5351 39.5509C18.3289 39.4133 18.3395 39.2651 18.3606 39.0164L18.4822 37.3865L19.8254 39.3657C20.0052 39.6356 20.1427 39.8102 20.4811 39.9531L20.5499 39.9795L20.7455 37.3442C20.7614 37.0955 20.7773 36.9367 20.9941 36.8309L21.0205 36.8203Z" fill="#004EA2"/>
<path d="M24.2993 39.4402C24.0614 39.3502 23.9556 39.1386 23.8393 38.9163L22.5966 36.5879L21.7875 36.6726V36.7784L21.8298 36.789C21.8827 36.7996 21.9144 36.8154 21.9303 36.8472C21.9673 36.9107 21.9303 37.0218 21.9038 37.1224L21.3274 39.1174L21.3063 39.1862C21.2428 39.419 21.1847 39.6413 20.9678 39.7789L20.9414 39.8106V39.8953L21.8986 39.8001V39.6942L21.8562 39.6836C21.7875 39.6678 21.7452 39.6413 21.724 39.6095C21.687 39.546 21.7135 39.4349 21.7505 39.292L21.9144 38.6623L23.0038 38.5512L23.3263 39.1862C23.418 39.3626 23.4109 39.4808 23.3052 39.5408L23.2787 39.5566V39.6572L24.2835 39.5566L24.3416 39.5355L24.3152 39.4508L24.2888 39.4402H24.2993ZM22.7922 38.1225L22.0413 38.1966L22.3216 37.207L22.7922 38.1225Z" fill="#004EA2"/>
<path d="M26.4768 38.2235C26.297 38.4722 26.0749 38.6204 25.7946 38.6839L25.2288 38.795L24.7211 36.9164L24.7053 36.8529C24.6524 36.673 24.5837 36.419 24.737 36.3131L24.7635 36.2814L24.7423 36.1914L23.7852 36.4454L23.8116 36.546H23.8486C24.039 36.5671 24.1024 36.8106 24.1553 37.0064L24.6154 38.7368L24.6313 38.7897C24.6841 38.9749 24.7582 39.2342 24.5995 39.3401L24.5678 39.3612L24.5995 39.4618L26.5191 38.9538L26.6037 38.1917L26.4979 38.2182L26.4874 38.2341L26.4768 38.2235Z" fill="#004EA2"/>
<path d="M31.0834 36.6362C31.0834 36.6362 31.0623 36.6362 31.0517 36.6362C30.8772 36.6362 30.7608 36.4192 30.6762 36.2604L29.8143 34.6888L29.7878 34.6411C29.6926 34.4718 29.5604 34.2442 29.6873 34.1014L29.7191 34.0643L29.645 33.9902L28.8413 34.4295L28.7937 34.4665L28.8518 34.5406H28.8836C29.0686 34.5088 29.1956 34.747 29.2855 34.9163L29.9782 36.1811C30.0522 36.3187 30.1051 36.4086 30.084 36.5568C30.0575 36.7843 29.9042 36.996 29.6715 37.1177C29.2696 37.34 28.9417 37.2024 28.6667 36.705L28.0745 35.6307L28.048 35.5831C27.9529 35.4137 27.8207 35.1862 27.9423 35.0433L27.9581 35.0063L27.9211 34.9269L27.1015 35.3714L27.0645 35.4032L27.0962 35.4825H27.1385C27.1385 35.4825 27.1596 35.4772 27.1702 35.4772C27.3394 35.4772 27.4452 35.6783 27.5351 35.8424L28.1697 37.0013C28.3283 37.2924 28.4764 37.5622 28.8307 37.684C28.9259 37.7157 29.0316 37.7316 29.1374 37.7316C29.3383 37.7316 29.5551 37.6734 29.7561 37.5622C29.9941 37.4299 30.2637 37.1971 30.3642 36.9008L30.47 37.0913L31.1151 36.742L31.1574 36.705L31.1098 36.6256H31.0728L31.0834 36.6362Z" fill="#004EA2"/>
<path d="M32.2887 31.9627L32.2993 31.9415L32.2517 31.8516L31.5801 32.4072L31.5484 32.4495L31.596 32.5183H31.6277C31.871 32.4707 31.9661 32.5871 32.1354 32.7882L33.1612 34.0001L30.6494 33.4815L30.5331 33.4497C30.4855 33.4444 30.4643 33.4391 30.4273 33.4127L30.3956 33.3862L29.8086 33.8731L29.8615 33.9524H29.8932C30.1312 33.9048 30.2316 34.0212 30.4009 34.217L31.5854 35.6247C31.7493 35.8205 31.8498 35.9369 31.7652 36.175V36.2068L31.8075 36.2861L32.5372 35.6829L32.4579 35.6141H32.4315C32.1935 35.6617 32.0931 35.5453 31.9291 35.3548L30.8715 34.1006L33.2247 34.5928C33.5314 34.6615 33.7588 34.6986 34.1078 34.5663L34.1766 34.5398L32.4685 32.5078C32.294 32.3067 32.2094 32.1902 32.2887 31.968V31.9627Z" fill="#004EA2"/>
<path d="M37.8418 27.4916L37.8154 27.5974V27.608C37.8947 27.8832 37.8471 28.1954 37.6938 28.4494L37.4135 28.9098L36.5198 28.4758L36.6414 28.2218L36.6573 28.1954C36.7155 28.0842 36.7842 27.9467 36.8953 27.9414L36.9323 27.9308L36.9693 27.8567L36.4299 27.5921L36.4088 27.645V27.6768C36.4035 27.7244 36.3717 27.7826 36.34 27.8461L36.1232 28.2906L35.441 27.9572C35.4833 27.8249 35.5415 27.6979 35.605 27.5762C35.6896 27.4016 35.7795 27.2534 35.9751 27.2005H35.9963L36.0386 27.1158L35.441 26.8301L35.4199 26.92C35.4199 26.9624 35.3987 27.01 35.3723 27.0576L34.6848 28.4547L34.7271 28.4864L34.2512 29.1585L34.3517 29.1955L34.3728 29.1797C34.5685 29.058 34.743 29.2802 34.9651 29.6136L35.8958 30.963L33.9657 30.455C33.696 30.3915 33.5955 30.3492 33.5638 30.328L33.4792 30.2592L33.0614 30.8572V30.8731L33.0455 30.8625L32.4268 31.5557L32.4004 31.6033L32.4691 31.6616L32.5009 31.6457C32.6701 31.5557 32.8552 31.7251 33.0032 31.8626L34.3517 33.0586L34.3993 33.1009C34.5421 33.2279 34.743 33.3973 34.6743 33.5666L34.6584 33.5984L34.7377 33.6725L35.3935 32.9422L35.3194 32.8681L35.2877 32.884C35.1185 32.9739 34.9334 32.8046 34.7853 32.667L33.4369 31.4763L33.3893 31.434C33.2412 31.307 33.0402 31.1377 33.109 30.963V30.9471L33.1354 30.9419C33.3364 30.8784 33.5532 30.9419 33.7594 31.0001L35.8006 31.5293C35.9275 31.561 36.028 31.5769 36.1126 31.5769C36.266 31.5769 36.3823 31.5293 36.5568 31.4605L36.7208 31.397L34.7377 28.5023L34.7642 28.5235L34.7959 28.4917C34.9334 28.3594 35.1608 28.4706 35.3459 28.5605L36.964 29.3437L37.0169 29.3702C37.1914 29.4548 37.4347 29.566 37.4135 29.7512V29.7882L37.4981 29.8411L38.3865 28.0419L37.9053 27.5656L37.8366 27.5127L37.8418 27.4916Z" fill="#004EA2"/>
<path d="M38.5181 25.3223L37.5926 25.6662C37.5926 25.2958 37.4023 24.8778 37.0057 24.7508C36.5456 24.6026 36.1278 24.8778 35.9375 25.4546L35.5938 26.4918V26.55L35.6731 26.5712L35.6942 26.5447C35.8159 26.3965 36.0538 26.4812 36.2442 26.5447L37.9628 27.095L38.0316 27.1162C38.2219 27.1744 38.4599 27.2538 38.4652 27.4337L38.481 27.4761L38.5657 27.5025L38.8724 26.5712L38.7772 26.5341L38.7507 26.5659C38.6344 26.714 38.3964 26.6347 38.2008 26.5659L37.2648 26.2642L38.0368 26.0578L38.8777 25.7403C39.0892 25.661 39.2108 25.5234 39.2901 25.2746L39.4805 24.7031L39.3377 24.8195C39.0733 25.0312 38.7613 25.2164 38.5022 25.317L38.5181 25.3223ZM37.2225 26.2113L37.2119 26.2589L36.2177 25.9361C36.2336 25.8409 36.2495 25.7562 36.2706 25.6821C36.3129 25.5339 36.4081 25.4069 36.5297 25.3434C36.6355 25.2852 36.7571 25.2746 36.8788 25.3117C37.2859 25.444 37.2701 25.9308 37.2225 26.2113Z" fill="#004EA2"/>
<path d="M38.8569 22.4577C38.3651 22.3783 38.0743 22.8176 37.8099 23.2092C37.5983 23.5214 37.3974 23.8177 37.1436 23.7754C37.0537 23.7595 36.9902 23.7225 36.9373 23.6537C36.8633 23.5478 36.8369 23.3732 36.8686 23.188C36.9109 22.9393 37.059 22.6906 37.2493 22.5583L37.3551 22.4842L36.6729 22.373L36.6571 22.4048C36.5566 22.6059 36.4826 22.8387 36.4403 23.0769C36.3715 23.4949 36.4297 23.8706 36.6042 24.1088C36.7205 24.2728 36.8844 24.3681 37.0907 24.4051C37.6406 24.5004 37.9368 24.0559 38.1959 23.6643C38.4127 23.3362 38.6031 23.0557 38.8939 23.1033C39.1689 23.1457 39.2588 23.5161 39.2165 23.7648C39.1636 24.0982 38.968 24.4316 38.693 24.6591L38.5661 24.765L39.3487 24.7173L39.3646 24.6909C39.5021 24.4527 39.592 24.1829 39.6395 23.8865C39.703 23.4949 39.6237 23.1139 39.4227 22.8334C39.2747 22.6271 39.0737 22.4948 38.8516 22.463L38.8569 22.4577Z" fill="#004EA2"/>
<path d="M39.8202 21.1459H39.7303L39.7144 21.1777C39.6351 21.3417 39.3865 21.3258 39.1856 21.3152L37.3823 21.2147H37.3295C37.1338 21.2041 36.8641 21.1935 36.8059 21.0136L36.7795 20.9766H36.6896L36.6367 21.8921V21.9503H36.7372L36.7531 21.9185C36.8271 21.7492 37.0756 21.7651 37.2819 21.7809L39.1591 21.8868C39.3601 21.8973 39.6086 21.9079 39.6615 22.0826L39.6721 22.1143L39.7778 22.1249L39.8307 21.2041L39.8202 21.1459Z" fill="#004EA2"/>
<path d="M36.2068 16.7961L36.228 16.8437L36.3126 16.8279L36.3231 16.7961C36.3443 16.722 36.376 16.6691 36.4289 16.6426C36.5082 16.6056 36.614 16.6321 36.6933 16.6638L37.5711 17.0184L36.5981 17.9233C36.5082 18.0079 36.4871 18.1455 36.5241 18.3307L36.5505 18.4577H36.5452L36.5505 18.5318V18.5636C36.5876 18.6165 36.5928 18.6853 36.5928 18.7488L36.688 20.4528V20.5639V20.5904C36.688 20.638 36.688 20.6803 36.6722 20.7174V20.7332L36.6774 20.7967L37.3385 20.9502L37.3279 20.8444L37.312 20.8285C37.1957 20.7174 37.1269 20.5374 37.1164 20.3311L37.0952 19.9765L39.0994 19.8707H39.147C39.3426 19.8548 39.6123 19.8336 39.6864 20.0083L39.7022 20.04H39.808L39.7551 19.0187H39.6546L39.6388 19.0504C39.5277 19.2727 39.3797 19.278 39.1258 19.2939L37.0582 19.405L37.037 19.0451C37.0265 18.8441 37.0688 18.7382 37.1692 18.6906L37.201 18.6641V18.5848L36.8097 18.5001C36.8784 18.4048 36.9577 18.3254 37.0582 18.2302L38.0999 17.2512L38.8297 17.103C39.0254 17.0607 39.2422 17.0131 39.3638 17.1612L39.385 17.1877L39.4801 17.1665L39.2739 16.177L39.1787 16.214L39.1681 16.2352C39.0624 16.4733 38.9513 16.4945 38.6869 16.5474L37.9836 16.6903L36.0059 15.8965L36.1909 16.7802L36.2068 16.7961Z" fill="#004EA2"/>
<path d="M4.57392 13.8176C4.82246 13.8176 5.0234 13.6165 5.0234 13.3678C5.0234 13.1191 4.82246 12.918 4.57392 12.918C4.32538 12.918 4.11914 13.1191 4.11914 13.3678C4.11914 13.6165 4.32538 13.8176 4.57392 13.8176Z" fill="#004EA2"/>
<path d="M36.8571 13.8176C37.1057 13.8176 37.3066 13.6165 37.3066 13.3678C37.3066 13.1191 37.1057 12.918 36.8571 12.918C36.6086 12.918 36.4023 13.1191 36.4023 13.3678C36.4023 13.6165 36.6086 13.8176 36.8571 13.8176Z" fill="#004EA2"/>
<path d="M19.1743 4.13317H20.5651C20.5651 4.13317 20.7608 4.14904 20.9617 4.06437V5.345H21.5381V2.47681H21.8237V5.345H22.3948V1.05859H21.8237V2.00055H21.5381V1.05859H20.9617V3.5246C20.8189 3.66219 20.5915 3.6569 20.5863 3.6569H19.2854V1.82591H20.6973V1.34435H18.709V3.67807C18.709 3.93208 18.9205 4.13846 19.1743 4.13846V4.13317Z" fill="#004EA2"/>
<path d="M6.31836 10.6899L6.67795 11.0127L7.86777 9.70559L8.9201 10.6422L9.30613 10.2189L8.2538 9.28224L9.44362 7.97515L9.08403 7.65234L6.35538 10.6528L6.31836 10.6899Z" fill="#004EA2"/>
<path d="M6.39935 9.96547C6.52627 9.96547 6.65318 9.91255 6.74308 9.81201L8.2449 8.16624C8.32951 8.07628 8.37181 7.95456 8.36652 7.83285C8.36123 7.71114 8.30835 7.59472 8.21317 7.51005L6.99691 6.41992L6.61088 6.84327L7.0868 7.26662L5.73305 8.75363L5.25712 8.32499L4.87109 8.74834L6.08736 9.83847C6.17725 9.91784 6.2883 9.95489 6.39935 9.95489V9.96547ZM7.44639 7.59472L7.81127 7.92281L6.45752 9.40983L6.09264 9.08173L7.44639 7.59472Z" fill="#004EA2"/>
<path d="M14.886 5.28072L15.4148 5.04788L14.7062 3.47619L15.272 3.22748L15.0764 2.78825L14.5105 3.03697L14.1245 2.17969L13.5957 2.41253L14.8648 5.23309L14.886 5.28072Z" fill="#004EA2"/>
<path d="M12.9766 5.52539L12.4531 5.75823L12.9396 6.83248C13.019 7.00711 13.1882 7.10766 13.368 7.10766C13.4314 7.10766 13.4949 7.09707 13.5583 7.06532L15.8216 6.06516L15.8692 6.04399L15.6683 5.60477L13.4579 6.58376L12.9819 5.52539H12.9766Z" fill="#004EA2"/>
<path d="M11.8822 5.77843C12.1202 5.56675 12.5221 5.13811 12.5961 4.58776C13.0826 4.91585 13.7066 4.8841 13.9605 4.85235H13.9922L14.1984 4.31258L14.1032 4.33375C13.9816 4.36021 12.9028 4.57188 12.4322 3.52939L12.2418 3.11133L11.7183 3.34417L11.9087 3.76223C12.3793 4.80472 11.5015 5.46092 11.3957 5.535L11.3164 5.59321L11.8558 5.79959L11.8769 5.77843H11.8822Z" fill="#004EA2"/>
<path d="M34.3625 11.1506L33.3789 10.1081L34.5793 8.99681L34.188 8.58404L32.9929 9.69533L32.6756 9.36195L33.876 8.25066L33.4847 7.83789L32.2896 8.94918L31.618 8.23478L31.2637 8.56288L34.0188 11.4787L34.3625 11.1506Z" fill="#004EA2"/>
<path d="M34.811 9.40383C34.3404 9.84306 33.9543 9.98594 33.949 9.98594L33.875 10.0124L34.2716 10.4357L34.3033 10.4252C34.3033 10.4252 34.7105 10.2717 35.197 9.82189L36.3974 8.7106H36.4979L34.261 6.33984L33.912 6.66265L35.71 8.57301L34.811 9.40913V9.40383Z" fill="#004EA2"/>
<path d="M28.6934 5.48712L29.2222 5.71467L29.6822 4.66159L30.2533 4.90502L30.449 4.46579L29.8779 4.21708L30.2533 3.3545L29.7245 3.12695L28.7145 5.4395L28.6934 5.48712Z" fill="#004EA2"/>
<path d="M28.0055 7.06473L28.5343 7.29228L29.1636 5.84231L29.2111 5.79469L26.3662 4.57227L26.1758 5.01678L28.4708 6.00107L28.0055 7.06473Z" fill="#004EA2"/>
<path d="M26.546 3.28128C26.4456 3.50883 26.4456 3.77342 26.5407 4.01685C26.6518 4.29732 26.8792 4.52487 27.17 4.65187C27.3287 4.72067 27.4926 4.75242 27.6512 4.75242C28.0637 4.75242 28.4445 4.53545 28.6031 4.17031C28.6771 3.99568 28.6983 3.80517 28.6613 3.61467L29.1425 3.82105L29.3329 3.37653L28.2435 2.90556L28.4339 2.47692L27.9051 2.24937L27.7147 2.67801L26.6253 2.20703L26.4297 2.65155L26.9109 2.85793C26.747 2.95848 26.6201 3.10136 26.5407 3.27599L26.546 3.28128ZM27.0748 3.50354C27.1594 3.30774 27.3551 3.18603 27.5666 3.18603C27.6407 3.18603 27.7147 3.2019 27.7887 3.23365C27.9262 3.29186 28.0267 3.3977 28.0796 3.53529C28.1325 3.66759 28.1272 3.80517 28.0743 3.93218C27.9579 4.20206 27.6354 4.31848 27.3604 4.20206C27.2229 4.14385 27.1224 4.03802 27.0643 3.90043C27.0114 3.76813 27.0167 3.63054 27.0695 3.50354H27.0748Z" fill="#004EA2"/>
<path d="M20.6976 0C9.28589 0 0 9.29251 0 20.7176C0 32.1428 9.28589 41.43 20.6976 41.43C32.1093 41.43 41.3952 32.1375 41.3952 20.7176C41.3952 9.29781 32.1146 0 20.6976 0ZM20.6976 41.0437C9.49741 41.0437 0.386031 31.9205 0.386031 20.7176C0.386031 9.51477 9.49741 0.386306 20.6976 0.386306C31.8978 0.386306 41.0092 9.50419 41.0092 20.7124C41.0092 31.9205 31.8978 41.0384 20.6976 41.0384V41.0437Z" fill="#004EA2"/>
<path d="M20.6979 35.7419C28.979 35.7419 35.7108 29.0001 35.7108 20.7183C35.7108 12.4366 28.9737 5.68945 20.6979 5.68945C12.422 5.68945 5.67969 12.4313 5.67969 20.7183C5.67969 29.0054 12.4167 35.7419 20.6979 35.7419ZM20.6979 6.07576C28.7622 6.07576 35.3247 12.643 35.3247 20.7131C35.3247 28.7831 28.7622 35.3504 20.6979 35.3504C12.6335 35.3504 6.06572 28.7831 6.06572 20.7131C6.06572 12.643 12.6282 6.07576 20.6979 6.07576Z" fill="#004EA2"/>
<path d="M19.6239 30.6713H21.7497C22.1199 29.777 23.1933 29.8299 23.1933 29.8299H31.025V17.8809H23.1933C21.2843 17.9391 20.6868 19.0609 20.6868 19.0609C20.0786 17.8862 18.2437 17.8862 18.2437 17.8862H10.375V29.8246H18.0797C19.1321 29.8246 19.5022 30.3167 19.6239 30.6713ZM11.3639 18.8704H17.9105C20.0892 18.9128 20.6656 20.6379 20.6656 20.6379C21.3795 18.8916 23.627 18.8757 23.627 18.8757H30.015V28.8403H23.0717C20.9247 28.8562 20.6551 30.2691 20.6551 30.2691C20.2161 28.6604 18.1485 28.835 18.1485 28.835H11.3586V18.8704H11.3639Z" fill="#009A53"/>
<path d="M17.7301 24.4595H18.7295V26.3593H22.6692V24.4595H23.6686V26.354H27.6135V25.3538H24.7527V24.4595H27.6188V21.459H23.6739V23.4646H22.6744V21.459H21.5957V23.4646H19.8083V21.459H18.7295V23.4646H17.7354V21.459H13.7852V22.4539H16.6566V23.4646H13.7852V26.354H17.7354V26.3434V24.4542L17.7301 24.4595ZM24.7527 22.4486H26.54V23.4593H24.7527V22.4486ZM19.8083 24.4595H21.5957V25.3644H19.8083V24.4595ZM16.6566 25.3644H14.8639V24.4595H16.6566V25.3644Z" fill="#009A53"/>
<path d="M20.1055 12.0391V12.3566L21.0573 12.0391H20.1055Z" fill="#004EA2"/>
<path d="M17.9798 16.844C20.2273 16.8652 20.6662 17.823 20.6662 17.823C21.1368 17.0769 22.0411 16.8493 23.4424 16.8493H31.0256V11.4569H27.6465C26.996 11.4569 26.5994 11.658 26.2874 12.1184L25.0183 13.907H23.141V12.3142L24.426 11.0547H23.0987L23.4319 10.7637H20.7402C20.2008 10.7637 19.7725 10.9859 19.6192 11.2929H18.6726C17.8001 11.2929 17.4828 11.785 17.6626 12.4306L18.0486 13.7324C18.3976 13.362 18.7678 13.4096 18.7678 13.5684C18.7678 13.7271 18.588 13.9123 18.588 13.9123H16.3247L15.082 12.1237C14.77 11.6633 14.3734 11.4622 13.7176 11.4622H10.3809V16.8493C12.4062 16.8493 17.3982 16.8493 17.9851 16.8493L17.9798 16.844ZM11.3697 12.4518H13.4427C13.6489 12.4518 13.8181 12.4941 13.9292 12.5523C14.0138 12.5999 14.1618 12.7005 14.2729 12.8487C14.4104 13.0392 15.6372 14.8384 15.6372 14.8384H19.175C19.175 14.8384 19.5028 14.1558 19.7038 13.6795C19.91 13.1979 19.8413 12.8645 19.4023 12.8275C19.0322 12.801 18.7995 12.8857 18.7625 13.0392L18.6038 12.5047C18.5087 12.2348 18.5774 12.0337 18.9529 12.0337H20.1004C20.1004 12.0337 20.1215 11.6633 20.7561 11.6633H22.6439L22.1098 12.1554V14.8384H25.7798C25.7798 14.8384 26.9485 13.0392 27.0859 12.8487C27.1917 12.7005 27.3451 12.5999 27.4244 12.5523C27.5354 12.4941 27.7046 12.4412 27.9109 12.4412H30.0208V15.8544H23.6857C21.9988 15.8544 21.2109 15.9709 20.6715 16.553C20.0951 15.992 19.6403 15.8597 17.9534 15.8597H11.3644V12.4571L11.3697 12.4518Z" fill="#004EA2"/>
<path d="M19.4445 28.0043V27.1523H19.4392C19.3704 27.2688 19.2488 27.3693 19.1113 27.4169H19.2858V27.999C19.2858 28.089 19.2911 28.1631 19.2012 28.2054L19.5185 28.2107C19.4339 28.1525 19.4445 28.0837 19.4445 27.999V28.0043Z" fill="#009A53"/>
<path d="M20.1154 27.1953C19.8985 27.1953 19.7188 27.3435 19.7188 27.5657C19.7188 27.7457 19.8562 27.878 20.036 27.878C20.0783 27.878 20.1206 27.8727 20.1629 27.8568L20.2634 27.7298C20.2158 27.7615 20.1577 27.7774 20.1048 27.7774C19.9673 27.7774 19.8721 27.6716 19.8721 27.5287C19.8721 27.4017 19.962 27.3012 20.0942 27.3012C20.2687 27.3012 20.3586 27.4705 20.3586 27.624C20.3586 27.878 20.1365 28.1002 19.8933 28.1478L19.8192 28.2431C19.9937 28.2219 20.1471 28.169 20.2846 28.0579C20.4221 27.952 20.512 27.7827 20.512 27.6134C20.512 27.3858 20.3533 27.2006 20.1154 27.2006V27.1953Z" fill="#009A53"/>
<path d="M21.2525 27.2207H21.041L20.5703 28.0092H21.1044V28.0462C21.1044 28.1256 21.115 28.1785 21.0304 28.2103L21.3265 28.2156C21.2578 28.1785 21.2578 28.1044 21.2578 28.0409V28.0092H21.3794L21.4534 27.8293C21.4005 27.8769 21.3318 27.8928 21.2578 27.8928V27.226L21.2525 27.2207ZM21.0991 27.8875C20.9669 27.8875 20.8559 27.8822 20.7765 27.8769L21.0991 27.3318V27.8875Z" fill="#009A53"/>
<path d="M22.02 27.5552C21.9724 27.5552 21.9249 27.5657 21.8878 27.5816L21.7874 27.7033C21.8402 27.6716 21.8984 27.6557 21.9566 27.6557C22.1099 27.6557 22.1893 27.7563 22.1893 27.9044C22.1893 28.0314 22.1099 28.1373 21.9777 28.1373C21.7979 28.1373 21.7133 27.9679 21.7133 27.8145C21.7133 27.6716 21.7768 27.5446 21.8773 27.4493C21.9513 27.3805 22.0729 27.3011 22.1734 27.2906L22.2474 27.1953C21.9196 27.2218 21.5547 27.4599 21.5547 27.8198C21.5547 28.0526 21.7186 28.2431 21.9619 28.2431C22.1734 28.2431 22.3426 28.0949 22.3426 27.878C22.3426 27.6875 22.2051 27.5605 22.0148 27.5605L22.02 27.5552Z" fill="#009A53"/>
<path d="M50.638 29.6289H48.5387L48.2743 29.6554V30.0999L48.4382 30.1687C48.6444 30.2533 48.655 30.6079 48.655 30.9995V31.1159V34.4974C48.655 34.889 48.6444 35.2436 48.4382 35.3177L48.2637 35.4076V35.8574H50.252L50.5164 35.831V35.4129L50.3842 35.3388C50.0828 35.1695 50.0669 34.9896 50.0669 34.4815V33.2009C50.3102 33.2962 50.5534 33.312 50.7174 33.312C51.7803 33.312 52.8855 32.6029 52.8855 31.4176C52.8855 30.3539 51.9812 29.6342 50.638 29.6342V29.6289ZM50.0669 30.8037C50.178 30.7931 50.289 30.7878 50.4106 30.7878C51.0505 30.7878 51.3784 31.0577 51.3784 31.5869C51.3784 32.3172 50.601 32.6294 50.0775 32.6559V30.8037H50.0669Z" fill="#004EA2"/>
<path d="M58.1852 34.4921V34.3863V31.0101C58.1852 30.6132 58.1957 30.2533 58.402 30.174L58.6188 30.0628L58.513 29.6342H56.6622L56.3978 29.6607V30.1105L56.5723 30.174C56.7732 30.2481 56.7891 30.6026 56.7838 30.9942V33.7566C56.7838 34.0317 56.7838 34.1693 56.6463 34.3545C56.4295 34.6615 56.0382 34.8467 55.5993 34.8467C55.1234 34.8467 54.4835 34.6985 54.4835 33.4232V30.9942C54.4782 30.6026 54.4888 30.2481 54.6897 30.174L54.859 30.0787V29.6289H52.95L52.6855 29.6554V30.1052L52.8601 30.1687C53.061 30.2428 53.0769 30.5761 53.0663 30.973V33.4867C53.0663 34.1058 53.0663 34.7408 53.5739 35.3018C53.9758 35.741 54.6157 35.9897 55.3349 35.9897C55.7791 35.9897 56.3238 35.8839 56.768 35.6034V35.8521H58.3015L58.5659 35.8257V35.3759L58.3967 35.3124C58.1852 35.233 58.1746 34.8731 58.1746 34.4815L58.1852 34.4921Z" fill="#004EA2"/>
<path d="M63.421 33.9418C63.421 32.9099 62.4162 32.4495 61.6124 32.0844C61.0149 31.8092 60.4438 31.5499 60.4438 31.1742C60.4438 30.6767 61.1577 30.6556 61.3004 30.6556C61.7394 30.6556 62.1941 30.8355 62.4691 31.116L62.9239 31.5817V29.7613L62.7388 29.703C62.321 29.5707 61.861 29.502 61.3692 29.502C60.2428 29.502 58.9314 29.9676 58.9314 31.2747C58.9314 32.4336 59.9414 32.8835 60.7505 33.2486C61.4749 33.5714 61.9139 33.7989 61.9139 34.217C61.9139 34.6351 61.3375 34.8573 60.9356 34.8573C60.3433 34.8573 59.6823 34.6086 59.2169 34.2011L58.6035 33.6666L59.0689 35.6828L59.2011 35.7305C59.6981 35.9104 60.2481 36.0057 60.8404 36.0057C62.2629 36.0057 63.421 35.0849 63.421 33.9524V33.9418Z" fill="#004EA2"/>
<path d="M73.3196 29.6603V30.0784L73.4571 30.1525C73.7585 30.3218 73.7744 30.5017 73.7744 31.0098V33.534L71.088 30.1472L70.9453 29.9408C70.9135 29.9038 70.8977 29.8879 70.8871 29.8561V29.6286H69.3588L69.0944 29.655V30.0731L69.2266 30.1472C69.528 30.3218 69.5439 30.5017 69.5439 31.0045V34.4601C69.5439 34.9205 69.528 35.111 69.2901 35.2803C68.9781 35.0845 68.8353 34.7458 68.6767 34.3489L66.7624 29.618H65.213L64.9486 29.6445V30.1049L65.1336 30.1631C65.1918 30.1789 65.2077 30.2001 65.213 30.2001C65.2394 30.2583 65.1548 30.4753 65.0966 30.6129L63.6477 34.2272L63.6054 34.3436C63.4415 34.7829 63.3092 35.1268 62.9391 35.3121L62.791 35.4126V35.8412H64.6524L64.9168 35.8148V35.365L64.7476 35.3015C64.6313 35.2591 64.6101 35.2221 64.6101 35.2168C64.5784 35.148 64.6842 34.8675 64.7317 34.7458L65.1178 33.698H66.9316L67.3705 34.8411C67.4393 35.0104 67.508 35.1903 67.5186 35.2168C67.5186 35.2168 67.4868 35.2485 67.3546 35.3068L67.196 35.402V35.8412H70.8818L71.1462 35.8148V35.3967L71.014 35.3226C70.7126 35.148 70.6967 34.9681 70.6967 34.4865V31.8618L73.1927 35.0263C73.5734 35.5184 73.8749 35.8624 74.5782 36.1058L74.9272 36.2222V30.9886C74.9272 30.4859 74.943 30.3059 75.2445 30.1313L75.3767 30.0255V29.6074H73.5893L73.3249 29.6339L73.3196 29.6603ZM65.5408 32.5497L66.0062 31.359L66.4662 32.5497H65.5355H65.5408Z" fill="#004EA2"/>
<path d="M89.4696 34.3651L87.55 29.6342H86.0059L85.7415 29.6607V30.121L85.9266 30.1793C85.9795 30.1951 86.0006 30.2163 86.0006 30.2163C86.0271 30.2745 85.9424 30.5021 85.8896 30.6291L84.4406 34.2434L84.3877 34.3757C84.2238 34.8043 84.0969 35.143 83.732 35.3282V31.0101C83.732 30.5074 83.7479 30.3274 84.0493 30.1528L84.1815 30.047V29.6289H82.3994L82.135 29.6554V30.0734L82.2672 30.1475C82.5634 30.3168 82.5792 30.4915 82.5792 31.0048V33.529L79.8981 30.1422L79.7501 29.9358C79.7184 29.8988 79.7025 29.8829 79.6919 29.8565V29.6289H78.1637L77.8993 29.6554V30.0734L78.0315 30.1475C78.3329 30.3221 78.3487 30.5021 78.3487 31.0048V34.4604C78.3487 34.9684 78.3329 35.1483 78.0209 35.3335L77.8887 35.4394V35.8574H79.6813L79.9457 35.831V35.4129L79.8135 35.3388C79.5121 35.1642 79.4963 34.9843 79.4963 34.4974V31.8779L81.9869 35.0425C82.3518 35.524 82.6691 35.8786 83.3777 36.122L83.7267 36.2384V35.8574H85.4348L85.6992 35.831V35.3865L85.53 35.323C85.3555 35.2594 85.329 35.2489 85.5141 34.7673L85.9001 33.7195H87.7192L88.1582 34.8679C88.2269 35.0372 88.2956 35.2118 88.3009 35.2383C88.3009 35.2383 88.2692 35.27 88.1423 35.3282L87.9836 35.4235V35.8627H90.0196L90.284 35.8363V35.4076L90.1412 35.3335C89.7763 35.1483 89.6335 34.7832 89.4696 34.3651ZM86.339 32.55L86.8044 31.3593L87.2697 32.55H86.339Z" fill="#004EA2"/>
<path d="M93.6414 29.5982C93.5779 29.6299 93.4722 29.6299 93.3611 29.6299H89.9556L89.8551 29.6193C89.7916 29.614 89.7282 29.6087 89.6912 29.5929L89.358 29.5717L88.9984 30.7941L88.9297 31.1328H89.3897L89.4638 31.0587C89.7229 30.8153 90.1089 30.7782 90.3152 30.7782H90.8122V34.4931C90.8122 34.8847 90.807 35.2393 90.6007 35.3187L90.4315 35.4139V35.8584H92.404L92.6684 35.832V35.4139L92.5362 35.3398C92.2295 35.1599 92.2189 34.9906 92.2189 34.4878V30.7835H92.7318C93.1655 30.7835 93.213 30.9105 93.2289 30.9582L93.3188 31.1328H93.7048L94.0327 29.8998L94.0962 29.5664H93.689L93.6361 29.5929L93.6414 29.5982Z" fill="#004EA2"/>
<path d="M95.9313 34.4969V31.1154V30.9989C95.9313 30.7026 95.9208 30.2475 96.1376 30.1681L96.3068 30.0729V29.623H94.4031L94.1387 29.6495V30.0993L94.3132 30.1628C94.5141 30.2369 94.5247 30.5756 94.5194 30.9725V31.1101V34.4863C94.5194 34.7826 94.5247 35.2324 94.3132 35.3118L94.1387 35.4018V35.8516H96.0424L96.3068 35.8251V35.3806L96.1376 35.3171C95.9366 35.2377 95.9208 34.8832 95.926 34.4969H95.9313Z" fill="#004EA2"/>
<path d="M102.166 30.4556C101.536 29.8312 100.68 29.4872 99.749 29.4872H99.7384C98.7707 29.4661 97.8717 29.8153 97.2001 30.4662C96.5761 31.0748 96.2324 31.8792 96.2324 32.7311C96.2324 34.5939 97.7025 36.0015 99.6485 36.0015C101.595 36.0015 103.102 34.5463 103.102 32.6888C103.102 31.8527 102.769 31.0589 102.166 30.4609V30.4556ZM99.6908 34.8479C98.4852 34.8479 97.7395 33.7101 97.7395 32.6571C97.7395 31.4505 98.5169 30.6409 99.6697 30.6409C100.912 30.6409 101.584 31.7839 101.584 32.8634C101.584 34.0541 100.822 34.8532 99.6908 34.8532V34.8479Z" fill="#004EA2"/>
<path d="M119.051 34.2434C118.654 34.5821 118.194 34.7408 117.708 34.7091L116.782 34.6456V30.973C116.772 30.5761 116.782 30.2428 116.989 30.1687L117.163 30.0787V29.6289H115.244L114.979 29.6554V30.1052L115.154 30.1687C115.36 30.2428 115.376 30.6026 115.37 30.9995V34.381V34.4974C115.37 34.889 115.36 35.2436 115.154 35.3177L115.09 35.3494L115.053 35.3282C114.694 35.143 114.551 34.7832 114.387 34.3704L112.462 29.6289H110.918L110.653 29.6554V30.1158L110.839 30.174C110.897 30.1898 110.913 30.211 110.918 30.211C110.944 30.2692 110.86 30.4862 110.807 30.6238L109.363 34.2381L109.316 34.3651C109.162 34.7673 109.025 35.1166 108.692 35.3071V31.0101C108.692 30.5074 108.707 30.3274 109.009 30.1528L109.141 30.047V29.6289H107.354L107.089 29.6554V30.0734L107.227 30.1475C107.528 30.3168 107.544 30.4915 107.544 31.0048V33.529L104.858 30.1422L104.715 29.9411C104.678 29.8988 104.667 29.8829 104.651 29.8565V29.6289H103.128L102.864 29.6554V30.0734L102.996 30.1475C103.298 30.3221 103.314 30.5021 103.314 31.0048V34.4604C103.314 34.9684 103.298 35.1536 102.986 35.3335L102.854 35.4394V35.8574H104.646L104.911 35.831V35.4129L104.778 35.3388C104.477 35.1642 104.461 34.9843 104.461 34.5027V31.8832L106.957 35.0478C107.338 35.5452 107.645 35.8839 108.348 36.1273L108.697 36.2437V35.8627H110.368L110.632 35.8363V35.3917L110.463 35.3282C110.289 35.2647 110.262 35.2542 110.442 34.7779L110.833 33.7301H112.647L113.086 34.8731C113.155 35.0478 113.223 35.2224 113.234 35.2489C113.234 35.2489 113.202 35.2806 113.075 35.3388L112.917 35.4394V35.8733H114.995H119.003L119.516 34.5503L119.627 34.1905H119.146L119.072 34.254L119.051 34.2434ZM111.246 32.55L111.711 31.3593L112.176 32.55H111.246Z" fill="#004EA2"/>
<path d="M127.077 30.1734L127.326 30.0464L127.146 29.6283H125.327L125.062 29.6548V30.1046L125.237 30.1681C125.438 30.2422 125.454 30.5968 125.448 30.9883V33.7401C125.448 34.0206 125.448 34.1635 125.316 34.3487C125.094 34.6609 124.703 34.8461 124.264 34.8461C123.788 34.8461 123.153 34.6979 123.153 33.4226V30.9936C123.153 30.6814 123.143 30.2528 123.36 30.1681L123.529 30.0729V29.623H121.62L121.355 29.6495V30.0993L121.53 30.1628C121.731 30.2369 121.742 30.5703 121.736 30.9619V33.4808C121.736 34.1 121.736 34.7403 122.249 35.2959C122.651 35.7351 123.296 35.9839 124.01 35.9839C124.555 35.9839 125.052 35.8463 125.443 35.5976V35.8463H126.982L127.246 35.8198V35.37L127.072 35.3065C126.86 35.2271 126.85 34.8779 126.855 34.4916V31.1048V30.9831C126.855 30.5756 126.86 30.2369 127.072 30.1575L127.077 30.1734Z" fill="#004EA2"/>
<path d="M131.743 29.6607V30.0787L131.875 30.1528C132.171 30.3221 132.187 30.4915 132.187 31.0101V33.5343L129.506 30.1422L129.363 29.9411C129.326 29.9041 129.316 29.8882 129.305 29.8617V29.6289H127.777L127.513 29.6554V30.0734L127.645 30.1475C127.946 30.3221 127.962 30.5021 127.962 31.0048V34.4604C127.962 34.9684 127.946 35.1483 127.634 35.3335L127.502 35.4394V35.8574H129.3L129.564 35.831V35.4129L129.432 35.3388C129.131 35.1642 129.115 34.9896 129.12 34.5133V31.8832L131.611 35.0478C131.992 35.5452 132.293 35.8839 132.996 36.1273L133.345 36.2437V31.0101C133.345 30.5074 133.361 30.3274 133.663 30.1528L133.795 30.047V29.6289H132.007L131.743 29.6554V29.6607Z" fill="#004EA2"/>
<path d="M146.439 34.1957H145.968L145.894 34.2645C145.524 34.5926 145 34.7619 144.498 34.7143L143.636 34.6297V33.0844H144.022C144.181 33.0844 144.482 33.0844 144.545 33.1956L144.646 33.3331H145.069V32.1478L145.048 31.8832H144.72L144.662 31.9096C144.614 31.9361 144.503 31.9361 144.403 31.9361H143.641V30.8142C143.842 30.7931 144.054 30.7878 144.26 30.7878C144.656 30.7878 144.894 30.8301 145.079 31.0471L145.185 31.137H145.571V29.8564L145.545 29.5918H145.212L145.154 29.6235C145.127 29.6394 145.027 29.6341 144.968 29.6341H142.108H142.092H140.415L140.151 29.6606V30.1051L140.315 30.1739C140.548 30.2692 140.458 30.629 140.199 31.3117L139.247 33.82L138.115 30.719C137.935 30.248 137.898 30.0734 137.898 30.031L137.935 29.6341H136.333H134.419L134.154 29.6606V30.1104L134.329 30.1739C134.535 30.248 134.546 30.5814 134.54 30.9836V34.3862V34.5132C134.546 34.8995 134.535 35.2488 134.329 35.3229L134.154 35.4128V35.8627H136.069L136.333 35.8362V35.3864L136.164 35.3229C135.963 35.2435 135.947 34.8942 135.952 34.5079V31.1211V30.9994C135.952 30.6078 135.958 30.248 136.164 30.1739L136.227 30.1369C136.486 30.338 136.608 30.6819 136.735 31.0471L138.12 34.7937C138.374 35.4869 138.617 35.6404 139.093 35.9579L139.548 36.2595L141.901 30.1316L142.018 30.1739C142.229 30.248 142.24 30.6078 142.235 30.9994V34.3862V34.5026C142.235 34.8942 142.224 35.2488 142.018 35.3229L141.843 35.4128V35.8627H145.904L146.359 34.545L146.454 34.1957H146.439Z" fill="#004EA2"/>
<path d="M153.767 32.0844C153.164 31.8092 152.598 31.5499 152.598 31.1742C152.598 30.6767 153.307 30.6556 153.45 30.6556C153.889 30.6556 154.349 30.8355 154.629 31.1213L155.084 31.5764V29.7613L154.899 29.703C154.476 29.5707 154.016 29.502 153.524 29.502C152.403 29.502 151.086 29.9676 151.086 31.2747C151.086 32.4336 152.096 32.8835 152.905 33.2486C153.63 33.5714 154.069 33.7989 154.069 34.217C154.069 34.6351 153.492 34.8573 153.09 34.8573C152.487 34.8573 151.842 34.6139 151.366 34.2011L150.753 33.6719L151.023 34.8309C150.79 34.6298 150.584 34.4234 150.43 34.2276L149.42 32.9522C150.06 32.6771 150.615 32.0791 150.615 31.2959C150.615 30.4704 149.981 29.6342 148.564 29.6342H146.507L146.242 29.6607V30.1105L146.417 30.174C146.618 30.2481 146.628 30.5815 146.618 30.9731V34.3863V34.5292C146.623 34.9049 146.618 35.2542 146.417 35.323L146.242 35.413V35.8628H148.156L148.421 35.8363V35.3865L148.246 35.323C148.04 35.2489 148.03 34.8944 148.035 34.5081V33.2063L148.569 34.0212L149.627 35.3283C149.939 35.7093 150.288 35.8628 150.838 35.8628H151.842C152.212 35.9527 152.604 36.0004 153.016 36.0004C154.444 36.0004 155.602 35.0796 155.602 33.9471C155.602 32.9152 154.597 32.4548 153.788 32.0897L153.767 32.0844ZM148.024 30.7297C148.13 30.7138 148.241 30.7032 148.363 30.7032C148.611 30.6873 148.849 30.772 149.003 30.9202C149.135 31.0419 149.198 31.2059 149.198 31.3964C149.198 32.0103 148.58 32.259 148.024 32.3596V30.735V30.7297Z" fill="#004EA2"/>
<path d="M157.49 34.508V31.1212V30.9995C157.49 30.6873 157.479 30.2586 157.696 30.174L157.865 30.0787V29.6289H155.962L155.697 29.6554V30.1052L155.872 30.1687C156.073 30.2428 156.083 30.5761 156.078 30.973V34.381V34.4974C156.078 34.889 156.073 35.2436 155.872 35.3124L155.697 35.4023V35.8521H157.601L157.865 35.8257V35.3812L157.696 35.3177C157.495 35.2436 157.485 34.889 157.49 34.5027V34.508Z" fill="#004EA2"/>
<path d="M165.412 34.4661V33.1802L167.766 29.6293H165.762L165.497 29.6558V30.0844L165.645 30.1585C165.735 30.2009 165.783 30.2485 165.799 30.2961C165.82 30.3702 165.772 30.4972 165.677 30.6348L164.831 31.8995L163.662 29.9892C163.562 29.8251 163.324 29.6346 162.821 29.624L162.832 29.5605H162.488L162.377 29.587C162.308 29.6188 162.192 29.624 162.092 29.624H158.686L158.586 29.6135C158.522 29.6082 158.464 29.6029 158.427 29.587L158.094 29.5658L157.734 30.7883L157.66 31.1269H158.12L158.194 31.0581C158.385 30.8782 158.686 30.7777 159.04 30.7777H159.537V34.4979C159.543 34.8842 159.532 35.2387 159.326 35.3128L159.157 35.4081V35.8526H161.14L161.404 35.8261V35.4081L161.272 35.334C160.965 35.154 160.949 34.9847 160.949 34.4767V30.7777H161.468C161.896 30.7777 161.949 30.91 161.965 30.9576L162.055 31.1322H162.441L162.525 30.8094C162.552 30.8465 162.573 30.8835 162.599 30.9258L163.995 33.1749V34.5296C164.006 34.9318 163.995 35.2228 163.778 35.3287L163.636 35.4292V35.8579H165.587L165.851 35.8314V35.4345L165.74 35.3551C165.407 35.1117 165.407 34.9741 165.407 34.4661H165.412Z" fill="#004EA2"/>
<path d="M101.247 20.544H107.714C107.751 20.544 108.465 20.6075 109.3 20.3482V26.2486H112.547V12.7596H113.309V26.2486H116.55V5.50977H113.309V9.93376H112.547V5.50977H109.3V17.2789C108.713 17.7551 107.846 17.734 107.82 17.734H102.04V9.66388H108.629V6.83273H98.793V18.0938C98.793 19.4432 99.8982 20.5387 101.252 20.5387L101.247 20.544Z" fill="#004EA2"/>
<path d="M56.2964 26.2471H59.5433V19.6481H67.8139V16.8223H47.9941V19.6481H56.2964V26.2471Z" fill="#004EA2"/>
<path d="M52.6791 16.0768H63.1231C64.4768 16.0768 65.582 14.9708 65.582 13.6161V5.68359H62.3404V8.67879H53.4617V5.68359H50.2148V13.6161C50.2148 14.9708 51.3201 16.0768 52.6738 16.0768H52.6791ZM53.467 11.5046H62.3404V13.251H53.467V11.5046Z" fill="#004EA2"/>
<path d="M90.4695 12.7591H93.3727V9.9332H90.4695V5.50391H87.2227V20.8503H90.4695V12.7591Z" fill="#004EA2"/>
<path d="M90.4739 25.9785V23.1579H79.1785V17.6914H75.9316V23.523C75.9316 24.8778 77.0316 25.9785 78.3853 25.9785H90.4686H90.4739Z" fill="#004EA2"/>
<path d="M73.8169 17.2574C74.938 16.9081 77.5238 15.9079 79.0627 13.7542C80.5222 15.8127 82.9071 16.8181 84.2926 17.2521L84.5993 17.3473L86.9948 14.9501L86.0271 14.7543C85.4824 14.6432 80.6808 13.516 80.6808 8.38291V5.94336H77.4392V8.38291C77.4392 13.5478 72.6323 14.6432 72.0824 14.7543L71.1094 14.9448L73.5049 17.3473L73.8116 17.2521L73.8169 17.2574Z" fill="#004EA2"/>
<path d="M166.939 21.5432H160.213V13.8965H156.992V21.5432H155.411V13.8965H152.196V21.5432H147.59V24.3532H166.939V21.5432Z" fill="#004EA2"/>
<path d="M161.811 14.7011C161.811 17.6434 161.092 19.3791 161.087 19.395L160.769 20.1306H164.111L164.249 19.8078C164.281 19.7284 165.042 17.8762 165.042 14.7011V6.41406H149.521V9.21875H161.816V14.7011H161.811Z" fill="#004EA2"/>
<path d="M125.598 17.9774V20.8085H137.268V26.2486H140.521V18.5172L140.515 18.1679H140.521V12.7649H143.429V9.93376H140.521V5.50977H137.268V17.9827L125.598 17.9774Z" fill="#004EA2"/>
<path d="M123.932 12.3505C123.932 15.1235 126.407 17.3831 129.453 17.3831C132.499 17.3831 134.974 15.1235 134.974 12.3505C134.974 11.562 134.778 10.8106 134.403 10.1227H136.624V7.28093H131.082V5.07422H127.83V7.28093H122.293V10.1227H124.509C124.133 10.8106 123.938 11.5673 123.938 12.3505H123.932ZM129.453 14.5414C128.21 14.5414 127.2 13.5518 127.2 12.3347C127.2 11.1175 128.21 10.1279 129.453 10.1279C130.696 10.1279 131.711 11.1175 131.711 12.3347C131.711 13.5518 130.701 14.5414 129.453 14.5414Z" fill="#004EA2"/>
</g>
<defs>
<clipPath id="clip0_307_1349">
<rect width="167.77" height="41.43" fill="white"/>
</clipPath>
</defs>
</svg>
