<svg width="168" height="42" viewBox="0 0 168 42" fill="none" xmlns="http://www.w3.org/2000/svg">
<g clip-path="url(#clip0_307_2846)">
<path d="M5.14897 17.8966C5.03226 18.4855 4.65558 18.8728 4.14627 18.772C3.62104 18.6712 3.38761 18.1195 3.49372 17.6154C3.51494 17.4987 3.55207 17.3926 3.62104 17.2971C3.56799 17.6897 3.72184 18.1566 4.15688 18.2415C4.55478 18.3211 4.7723 18.0717 4.84657 17.7109C4.86779 17.6048 4.8784 17.4934 4.88371 17.3926L2.83586 16.9894C2.5812 16.9364 2.40082 16.8992 2.21513 17.1114H2.19922L2.3796 16.2148H2.39552C2.43265 16.4642 2.77219 16.5013 2.9791 16.5438L4.69272 16.8833C4.89432 16.9258 5.22325 17.0159 5.36119 16.809H5.3718L5.14897 17.9019V17.8966Z" fill="white"/>
<path d="M2.10872 20.9801C1.84876 20.7732 1.74795 20.3912 1.75857 20.0676C1.76918 19.7652 1.88059 19.4468 2.10872 19.2452C2.38459 19.0118 2.69761 19.0277 3.02654 19.0436L4.26267 19.0808C4.46958 19.0861 4.80912 19.1338 4.90462 18.9004H4.91523L4.8834 19.7705H4.87279C4.7879 19.537 4.45367 19.5529 4.24676 19.5476L3.01062 19.5105C2.3952 19.4893 2.09811 19.7386 2.08219 20.2055C2.07688 20.4655 2.17238 20.7307 2.37929 20.8846C2.51723 20.9907 2.63394 20.9907 2.79841 20.996L4.1937 21.0437C4.40061 21.0437 4.74015 21.0862 4.83565 20.8634H4.85156L4.81973 21.7334H4.80382C4.72424 21.5 4.3847 21.5159 4.17248 21.5106L2.42703 21.4522C2.22013 21.4522 1.88059 21.4098 1.7904 21.6379H1.77448L1.7957 20.9642L2.09811 20.9748L2.10872 20.9801Z" fill="white"/>
<path d="M4.55448 23.7854C4.71364 23.5838 4.78261 23.2867 4.75078 23.032C4.71895 22.7721 4.5704 22.4591 4.25738 22.5015C3.62605 22.5811 3.84357 24.1461 2.99472 24.2522C2.50132 24.3159 1.9761 23.865 1.8806 23.1594C1.84346 22.8782 1.84877 22.597 1.91243 22.3264L2.46949 22.1195C2.26789 22.4219 2.17239 22.8145 2.22014 23.17C2.25197 23.4299 2.45888 23.8013 2.78251 23.7589C3.49872 23.6634 3.16449 22.1142 4.14067 21.9922C4.71895 21.9232 5.01604 22.475 5.09032 23.032C5.12215 23.2602 5.11684 23.4936 5.07971 23.7217L4.55979 23.7854H4.55448Z" fill="white"/>
<path d="M4.07208 26.0399L3.82273 25.1699L5.06948 25.2919L4.07208 26.0399ZM3.78029 26.2628L3.21792 26.6766C2.94205 26.8835 2.90491 26.9312 2.74044 26.7402H2.72983L2.98979 27.6475H3.0004C3.05876 27.3557 3.28689 27.2071 3.50972 27.032L5.53104 25.467L5.32944 24.772H5.31352C5.30822 25.0054 5.096 24.9789 4.92093 24.9577L2.85186 24.7454C2.57067 24.7189 2.3001 24.7136 2.0985 24.4961H2.08789L2.31602 25.3131H2.33194C2.35316 25.0744 2.49109 25.0691 2.76697 25.0903L3.45666 25.138L3.78029 26.2575V26.2628Z" fill="white"/>
<path d="M3.84853 28.0782C3.6151 28.1896 3.44533 28.2692 3.42411 28.5504H3.4135L3.05273 27.8235H3.06334C3.29678 27.9721 3.46655 27.8925 3.69998 27.7811L5.36055 26.98C5.59398 26.8633 5.76375 26.7837 5.77967 26.5078H5.79028L6.08737 27.102H6.08207C6.03963 27.1444 6.02902 27.171 6.0078 27.2187L5.95474 27.3195L4.77696 29.76L6.35264 28.996C6.59138 28.8846 6.75584 28.805 6.77176 28.5291H6.78237L7.13783 29.2507H7.12722C6.89378 29.1021 6.72932 29.1817 6.49588 29.2931L4.16155 30.4231C4.1191 30.0836 4.19338 29.8873 4.33662 29.5902L5.45074 27.2983L3.83792 28.0782H3.84853Z" fill="white"/>
<path d="M6.45347 32.5504C6.26248 32.7201 6.11924 32.8421 6.1776 33.118L6.16699 33.1286L5.61523 32.5238L5.62585 32.5132C5.89642 32.5981 6.03435 32.4761 6.22535 32.3063L7.59942 31.0808C7.79041 30.911 7.92835 30.7837 7.86999 30.5184L7.8806 30.5078L8.33686 31.0065C8.30503 31.0543 8.29972 31.0861 8.29442 31.1391L8.26789 31.2453L7.81164 33.9138L9.11674 32.7467C9.30773 32.5716 9.45098 32.4549 9.38731 32.1843L9.39792 32.1737L9.94437 32.7732L9.93376 32.7838C9.6685 32.6989 9.53056 32.8156 9.33957 32.9907L7.40843 34.7149C7.27049 34.3966 7.28641 34.1897 7.35007 33.8608L7.78511 31.3567L6.45347 32.5451V32.5504Z" fill="white"/>
<path d="M10.2739 35.1018L9.55241 34.5447L10.6294 33.9134L10.2686 35.1018H10.2739ZM10.1731 35.4519L9.96622 36.1151C9.86542 36.444 9.86542 36.5077 9.62138 36.4493L9.61077 36.4599L10.3641 37.0382L10.3747 37.0276C10.2474 36.7623 10.3429 36.5077 10.4172 36.2371L11.1175 33.7913L10.5392 33.3457L10.5286 33.3616C10.6612 33.5526 10.4702 33.6481 10.3164 33.7383L8.51787 34.7781C8.27383 34.9214 8.051 35.0752 7.75391 35.0222V35.0328L8.42238 35.5474V35.5368C8.30566 35.3352 8.41177 35.2503 8.6505 35.1071L9.23939 34.741L10.1625 35.4519H10.1731Z" fill="white"/>
<path d="M11.737 37.1332C11.5991 37.3613 11.5089 37.5152 11.6468 37.7592V37.7698L10.8457 37.3136V37.303C11.0951 37.3454 11.2436 37.0377 11.3497 36.8573L12.3895 35.0854L12.0394 34.8838C11.8643 34.7883 11.6627 34.7246 11.4717 34.767H11.4558L11.8749 34.3691H11.8855C11.9227 34.4275 11.9757 34.454 12.0182 34.4912L12.119 34.5495L13.6098 35.409C13.6787 35.4461 13.7424 35.478 13.8114 35.4833H13.822L13.4188 35.8918H13.4082C13.4347 35.7167 13.2861 35.6 13.1588 35.5257L12.7981 35.3241L11.737 37.1332Z" fill="white"/>
<path d="M13.9233 36.2421C14.0082 36.0511 14.1726 35.754 13.9923 35.579V35.5684L14.804 35.9185V35.9291C14.5493 35.9185 14.4379 36.2421 14.3583 36.4278L13.658 38.0141C13.5731 38.2051 13.414 38.4969 13.5891 38.672V38.6826L12.7773 38.3324V38.3218C13.032 38.3377 13.1381 38.0141 13.223 37.8284L13.9286 36.2421H13.9233Z" fill="white"/>
<path d="M16.4911 36.757C17.1967 36.948 17.4355 37.6908 17.2551 38.3327C17.0694 38.9906 16.4964 39.3673 15.8173 39.1763C15.117 38.9853 14.8571 38.2213 15.0268 37.6059C15.2178 36.9374 15.7961 36.5661 16.4911 36.757ZM16.6131 36.444C15.6847 36.1628 14.7457 36.6615 14.5122 37.5051C14.2523 38.4123 14.8252 39.2452 15.7059 39.4893C16.5919 39.7386 17.531 39.2877 17.7856 38.3858C18.0137 37.59 17.5522 36.6987 16.6131 36.444Z" fill="white"/>
<path d="M18.5401 39.3788C18.5189 39.6387 18.503 39.8191 18.7364 39.9783V39.9942L17.9141 39.9305V39.9199C18.1687 39.7979 18.1846 39.6122 18.2059 39.3576L18.3385 37.5325C18.3597 37.2726 18.3703 37.0922 18.1422 36.9383V36.9277L18.816 36.9808C18.8319 37.0391 18.8478 37.0657 18.8743 37.1028L18.9327 37.1983L20.4659 39.4371L20.5986 37.697C20.6198 37.4423 20.6357 37.2567 20.3969 37.1028V37.0922L21.214 37.1506V37.1665C20.9646 37.2832 20.9487 37.4689 20.9275 37.7288L20.7365 40.2966C20.4129 40.164 20.2855 40.0048 20.0999 39.7289L18.6674 37.6174L18.5348 39.3894L18.5401 39.3788Z" fill="white"/>
<path d="M23.1286 38.5408L22.2214 38.6309L22.561 37.4373L23.1339 38.5408H23.1286ZM23.2984 38.8697L23.6114 39.4851C23.7706 39.7928 23.813 39.8406 23.5955 39.9626V39.9785L24.5452 39.883V39.8724C24.264 39.7663 24.1526 39.5222 24.0252 39.2729L22.8262 37.0234L22.0994 37.0977V37.1136C22.3275 37.1561 22.2639 37.3577 22.2108 37.5327L21.6378 39.5169C21.5636 39.7875 21.5105 40.0528 21.2559 40.2119V40.2225L22.1047 40.1377V40.1217C21.8713 40.0634 21.8925 39.9254 21.9615 39.6602L22.1312 38.9917L23.2984 38.875V38.8697Z" fill="white"/>
<path d="M26.0684 39.1082C26.3814 39.0445 26.6149 38.8747 26.79 38.6254H26.8006L26.7316 39.2726L24.8907 39.7607V39.7448C25.0923 39.6069 24.9755 39.2833 24.9225 39.0817L24.4768 37.4105C24.4185 37.2089 24.3601 36.8746 24.1055 36.8534V36.8375L24.9596 36.6094V36.62C24.758 36.7632 24.8747 37.0869 24.9278 37.2832L25.453 39.2143L26.0737 39.0976L26.0684 39.1082Z" fill="white"/>
<path d="M30.6299 37.1295C30.5769 37.4585 30.2957 37.7343 30.0145 37.8935C29.7492 38.0367 29.415 38.1057 29.1232 38.0102C28.7784 37.8935 28.6404 37.6229 28.4813 37.3311L27.8871 36.2542C27.7863 36.0738 27.6536 35.7661 27.4043 35.7979V35.7873L28.1736 35.3682V35.3788C28.0197 35.5645 28.2054 35.8457 28.3062 36.026L28.9004 37.103C29.1975 37.6388 29.5636 37.7662 29.9774 37.538C30.2055 37.416 30.3859 37.1985 30.4177 36.9385C30.4389 36.7688 30.3806 36.668 30.301 36.5247L29.6325 35.3098C29.5317 35.1294 29.3938 34.8217 29.1497 34.8536V34.8429L29.9137 34.4238L29.9243 34.4344C29.7599 34.6201 29.9455 34.9013 30.0463 35.087L30.8846 36.6096C30.9854 36.79 31.1233 37.0977 31.3727 37.0606V37.0712L30.7785 37.3948L30.6352 37.1295H30.6299Z" fill="white"/>
<path d="M32.1583 35.7439C32.3228 35.9402 32.4395 36.0888 32.7207 36.041L32.7313 36.0516L32.0999 36.5769V36.5663C32.1901 36.301 32.0681 36.1577 31.9037 35.9615L30.7153 34.5502C30.5508 34.3592 30.4341 34.216 30.1582 34.2637V34.2531L30.6675 33.8234C30.7153 33.8605 30.7418 33.8659 30.7948 33.8712L30.9063 33.903L33.5801 34.4547L32.4554 33.1231C32.2909 32.9215 32.1742 32.7836 31.8983 32.8313V32.8207L32.5191 32.3008V32.3114C32.4289 32.5714 32.5509 32.7093 32.7154 32.9056L34.3812 34.8845C34.0576 35.0118 33.8507 34.9853 33.5271 34.911L31.0124 34.3858L32.1636 35.7492L32.1583 35.7439Z" fill="white"/>
<path d="M33.378 32.2111C33.2188 32.0731 32.9854 31.8238 32.7626 31.9405L32.752 31.9299L33.3355 31.2773L33.3461 31.288C33.256 31.5161 33.5318 31.723 33.6857 31.8609L34.9908 33.0122C35.15 33.1501 35.3781 33.3942 35.6009 33.2774L35.6115 33.2881L35.0279 33.9406L35.0173 33.93C35.1075 33.7072 34.8316 33.5003 34.6778 33.3623L33.3727 32.2111H33.378Z" fill="white"/>
<path d="M35.3204 29.9408C35.1241 29.649 34.9012 29.3095 34.6413 29.4739H34.6307L35.0233 28.9062L36.9385 31.7075C36.5777 31.8507 36.4875 31.9144 36.1109 31.8189L34.1585 31.3149C33.9145 31.2512 33.6492 31.1557 33.4051 31.23H33.3945L33.7818 30.6729L33.8243 30.7101C33.9091 30.7684 34.1479 30.8268 34.2487 30.848L36.3231 31.3891L35.3151 29.9355L35.3204 29.9408Z" fill="white"/>
<path d="M37.7353 29.3241L38.043 28.8254C38.2021 28.5655 38.2552 28.2365 38.1756 27.9394V27.9288L38.6372 28.3745L37.7883 30.0934H37.7777C37.8095 29.8387 37.4859 29.7167 37.3002 29.6265L35.7299 28.8679C35.5389 28.7777 35.2471 28.6026 35.0614 28.7777L35.0508 28.7671L35.698 27.446C35.7299 27.3771 35.7776 27.3134 35.7723 27.2444V27.2285L36.2657 27.4673V27.4779C36.0482 27.5362 35.9474 27.6954 35.8519 27.8864C35.7829 28.0296 35.7139 28.1782 35.6715 28.3214L36.4461 28.6981L36.6901 28.2047C36.722 28.141 36.7538 28.0721 36.7538 28.0084V27.9978L37.1994 28.2153V28.2259C37.0403 28.2365 36.9607 28.4116 36.897 28.5336L36.7485 28.8413L37.7353 29.3188V29.3241Z" fill="white"/>
<path d="M36.2804 25.8183C36.4714 25.2347 36.8852 25.0172 37.2884 25.1445C37.6757 25.2718 37.8667 25.7016 37.8348 26.0888L38.8376 25.7175C39.124 25.6061 39.4477 25.4098 39.6917 25.2082L39.5591 25.6061C39.4848 25.8395 39.3787 25.9668 39.1718 26.0411L38.3282 26.3594L37.5749 26.561C37.6386 26.195 37.6067 25.7334 37.1929 25.6008C36.8746 25.5 36.5987 25.7122 36.5191 26.0093C36.4873 26.1101 36.4714 26.2109 36.4555 26.317L38.429 26.9536C38.6306 27.0173 38.9437 27.1499 39.0975 26.9536H39.1081L38.8322 27.7919H38.8216C38.8163 27.5425 38.4768 27.4629 38.2805 27.3993L36.6199 26.8687C36.4183 26.7998 36.1053 26.6671 35.9462 26.8634H35.9355L36.2751 25.8183H36.2804Z" fill="white"/>
<path d="M37.5226 22.8525C37.3103 23.001 37.1618 23.2663 37.1194 23.5209C37.0769 23.7809 37.1194 24.1204 37.4377 24.1682C38.0637 24.2743 38.3131 22.7092 39.1566 22.8472C39.65 22.9267 40.0161 23.5103 39.9046 24.2159C39.8622 24.4918 39.772 24.7624 39.6341 25.0064L39.0399 25.0436C39.3158 24.8154 39.528 24.4706 39.581 24.1151C39.6235 23.8552 39.5333 23.4414 39.215 23.3883C38.504 23.2716 38.3714 24.8526 37.4005 24.6934C36.8223 24.5979 36.7002 23.9825 36.7904 23.4254C36.8276 23.2026 36.8965 22.9745 37.0026 22.7676L37.5173 22.8525H37.5226Z" fill="white"/>
<path d="M37.6534 22.0616C37.4412 22.051 37.1016 21.998 37.0008 22.2261H36.9902L37.038 21.3613H37.0486C37.1229 21.5948 37.4677 21.5895 37.6746 21.6001L39.4148 21.7009C39.627 21.7115 39.9612 21.7592 40.062 21.5364H40.0726L40.0249 22.4012H40.009C39.94 22.1677 39.5951 22.173 39.3882 22.1624L37.6428 22.0616H37.6534Z" fill="white"/>
<path d="M39.4271 19.6904C39.6924 19.6744 39.8728 19.6691 40.0001 19.4198H40.016L40.0638 20.3323H40.0478C39.947 20.1095 39.6128 20.1519 39.4059 20.1678L37.3421 20.2739L37.3634 20.6825C37.374 20.8787 37.4376 21.0803 37.5756 21.213V21.2289L37.0185 21.0963V21.0803C37.0397 21.0273 37.0344 20.9636 37.0397 20.9053V20.7886L36.9389 19.0802C36.9389 19.0007 36.9283 18.9317 36.8965 18.8733V18.8574L37.4535 18.9794V18.9901C37.2944 19.059 37.2838 19.2447 37.2891 19.3933L37.3103 19.8071L39.4218 19.6957L39.4271 19.6904Z" fill="white"/>
<path d="M39.0176 16.941C39.2882 16.888 39.4261 16.8615 39.5428 16.5962H39.5587L39.7391 17.4663H39.7232C39.5641 17.27 39.2776 17.3655 39.06 17.4079L38.3916 17.5458L37.3305 18.5379C37.1554 18.6971 37.0228 18.8191 36.9485 19.0579L36.8636 18.6493C36.8318 18.5061 36.8371 18.3682 36.922 18.2886L37.9565 17.3283L36.9963 16.941C36.869 16.888 36.6302 16.8296 36.5559 17.1055H36.5453L36.3809 16.3203L38.2908 17.0896L39.007 16.941H39.0176Z" fill="white"/>
<path d="M5.17024 13.6791C5.17024 13.8967 4.98986 14.077 4.77234 14.077C4.55483 14.077 4.36914 13.8967 4.36914 13.6791C4.36914 13.4616 4.54422 13.2812 4.77234 13.2812C5.00047 13.2812 5.17024 13.4616 5.17024 13.6791Z" fill="white"/>
<path d="M37.5589 13.6791C37.5589 13.8967 37.3785 14.077 37.161 14.077C36.9435 14.077 36.7578 13.8967 36.7578 13.6791C36.7578 13.4616 36.9382 13.2812 37.161 13.2812C37.3838 13.2812 37.5589 13.4616 37.5589 13.6791Z" fill="white"/>
<path d="M22.1209 2.33497H21.7283V1.39062H21.2562V3.83638C21.097 4.00615 20.8264 3.99553 20.8264 3.99553H19.5054C19.5054 3.99553 19.4683 3.97962 19.4683 3.9584V2.04848H20.8848V1.67181H18.9961V3.9584C18.9961 4.18653 19.1818 4.36691 19.4099 4.36691H20.8105C20.8105 4.36691 21.0439 4.38813 21.2562 4.26611V5.58182H21.7283V2.70634H22.1209V5.58182H22.5878V1.39062H22.1209V2.33497Z" fill="white"/>
<path d="M6.87298 11.2438L8.06667 9.93335L9.12243 10.8724L9.43545 10.5275L8.38499 9.58851L9.57869 8.27809L9.2922 8.02344L6.5918 10.9944L6.87298 11.2438Z" fill="white"/>
<path d="M6.3159 10.1082C6.48567 10.2621 6.74563 10.2462 6.89948 10.0764L8.40619 8.42645C8.56005 8.25668 8.54413 7.99672 8.37436 7.84287L7.19658 6.78711L6.87826 7.13195L7.35574 7.55638L5.9233 9.12675L5.44583 8.69702L5.13281 9.04187L6.3159 10.1029V10.1082ZM7.64223 7.81104L8.06135 8.18771C8.06135 8.18771 8.07726 8.22485 8.06135 8.23546L6.67666 9.75278C6.67666 9.75278 6.63952 9.7687 6.62891 9.75278L6.20979 9.3761L7.64223 7.80573V7.81104Z" fill="white"/>
<path d="M14.317 2.53125L13.8926 2.72224L15.1393 5.50223L15.5691 5.31124L14.8635 3.73556L15.4311 3.48621L15.2773 3.14136L14.7096 3.39071L14.317 2.53125Z" fill="white"/>
<path d="M13.6315 6.914L13.17 5.88477L12.7402 6.07576L13.2018 7.10499C13.2973 7.3119 13.5413 7.40739 13.7482 7.3119L16.0189 6.30919L15.8651 5.96435L13.6793 6.92991C13.6793 6.92991 13.6421 6.92991 13.6315 6.914Z" fill="white"/>
<path d="M12.6034 3.84208L12.4389 3.4707L12.0092 3.66169L12.179 4.03307C12.6724 5.13127 11.7174 5.82626 11.6484 5.87401L12.0676 6.03317C12.2851 5.84218 12.736 5.37531 12.7732 4.78642C13.2453 5.15249 13.8873 5.13127 14.1791 5.09413L14.3382 4.68031C14.2427 4.70154 13.0915 4.92966 12.6034 3.84208Z" fill="white"/>
<path d="M34.7884 9.29127L34.4754 8.95703L33.271 10.0712L32.8838 9.65734L34.0828 8.54852L33.7697 8.20898L32.5707 9.3231L31.8917 8.60688L31.6211 8.86154L34.3056 11.7052L34.5762 11.4558L33.5894 10.4054L34.7884 9.29127Z" fill="white"/>
<path d="M35.1385 9.74698C34.6504 10.1979 34.2578 10.3412 34.2578 10.3412L34.5761 10.6807C34.5761 10.6807 34.9687 10.5375 35.4568 10.0865L36.6717 8.95648L34.5496 6.70703L34.279 6.96169L36.0828 8.8769L35.1385 9.75228V9.74698Z" fill="white"/>
<path d="M30.5028 5.12762L30.6566 4.78278L30.0783 4.53343L30.4603 3.67397L30.0253 3.48828L29.0332 5.75365L29.4682 5.93934L29.9298 4.88358L30.5028 5.12762Z" fill="white"/>
<path d="M29.3886 6.10747L26.6617 4.92969L26.5078 5.27984L28.8103 6.26663L28.3435 7.32769L28.7785 7.51338L29.3886 6.10747Z" fill="white"/>
<path d="M29.5364 3.68918L28.4435 3.21701L28.6345 2.78728L28.1995 2.60159L28.0085 3.03132L26.9156 2.56445L26.7617 2.9146L27.2923 3.14273C27.096 3.23292 26.9368 3.38678 26.8466 3.58838C26.6344 4.07647 26.905 4.66005 27.4461 4.89349C27.9926 5.12692 28.6027 4.92001 28.8149 4.43723C28.9051 4.23563 28.9051 4.0128 28.8414 3.8059L29.3719 4.03403L29.5205 3.68387L29.5364 3.68918ZM27.6106 4.54334C27.3082 4.4107 27.1649 4.06586 27.2976 3.77406C27.4249 3.47697 27.7803 3.34433 28.0827 3.47697C28.3851 3.6096 28.5284 3.95445 28.3958 4.24624C28.2684 4.54334 27.913 4.67597 27.6106 4.54334Z" fill="white"/>
<path d="M41.6597 21.042C41.6597 32.4803 32.386 41.754 20.9477 41.754C9.50947 41.754 0.230469 32.4856 0.230469 21.042C0.230469 9.59846 9.50416 0.330078 20.9424 0.330078C32.3807 0.330078 41.6544 9.60377 41.6544 21.042H41.6597ZM20.9424 0.61126C9.65801 0.61126 0.51165 9.75762 0.51165 21.042C0.51165 32.3264 9.65801 41.4728 20.9424 41.4728C32.2268 41.4728 41.3732 32.3264 41.3732 21.042C41.3732 9.75762 32.2268 0.61126 20.9424 0.61126Z" fill="white"/>
<path d="M35.9564 21.0419C35.9564 29.3341 29.2345 36.0507 20.9476 36.0507C12.6607 36.0507 5.93359 29.3288 5.93359 21.0419C5.93359 12.755 12.6554 6.0332 20.9476 6.0332C29.2398 6.0332 35.9564 12.755 35.9564 21.0419ZM20.9423 6.31438C12.8093 6.31438 6.20947 12.9089 6.20947 21.0419C6.20947 29.175 12.804 35.7695 20.9423 35.7695C29.0807 35.7695 35.6699 29.175 35.6699 21.0419C35.6699 12.9089 29.0754 6.31438 20.9423 6.31438Z" fill="white"/>
<path d="M30.2966 29.1904H23.3307C21.1767 29.2064 20.9062 30.6229 20.9062 30.6229C20.4658 29.0101 18.3915 29.1851 18.3915 29.1851H11.5794V19.1952H18.1474C20.3332 19.2377 20.9115 20.9672 20.9115 20.9672C21.6277 19.2164 23.8825 19.2005 23.8825 19.2005H30.2913V29.1904H30.2966ZM23.4421 18.2031C21.5269 18.2615 20.9274 19.3862 20.9274 19.3862C20.3173 18.2084 18.4763 18.2084 18.4763 18.2084H10.582V30.1772H18.3119C19.3676 30.1772 19.739 30.6706 19.861 31.0261H21.9938C22.3651 30.1295 23.4421 30.1825 23.4421 30.1825H31.2993V18.2031H23.4421Z" fill="white"/>
<path d="M16.8847 23.8012H14.0039V26.6979H17.967V26.6873V24.7933H18.9697V26.6979H22.9221V24.7933H23.9248V26.6926H27.8826V25.6899H25.0124V24.7933H27.8879V21.7852H23.9302V23.7959H22.9274V21.7852H21.8452V23.7959H20.052V21.7852H18.9697V23.7959H17.9723V21.7852H14.0092V22.7826H16.89V23.7959L16.8847 23.8012ZM16.89 25.7058H15.0915V24.7986H16.89V25.7058ZM21.8452 25.7058H20.052V24.7986H21.8452V25.7058ZM25.0071 22.7826H26.8003V23.7959H25.0071V22.7826Z" fill="white"/>
<path d="M20.3477 12.664L21.3026 12.3457H20.3477V12.664Z" fill="white"/>
<path d="M18.2786 14.0335C18.6288 13.6621 19.0002 13.7099 19.0002 13.869C19.0002 14.0282 18.8198 14.2139 18.8198 14.2139H16.5491L15.3024 12.4207C14.9947 11.9591 14.5968 11.7575 13.9336 11.7575H10.5859V17.1583C12.6179 17.1583 17.6261 17.1583 18.215 17.1583C20.4697 17.1795 20.9101 18.1398 20.9101 18.1398C21.3823 17.3917 22.2895 17.1636 23.6954 17.1636H31.3032V11.7575H27.9131C27.2605 11.7575 26.8626 11.9591 26.5496 12.4207L25.2764 14.2139H23.393V12.617L24.6822 11.3543H23.3505L23.6848 11.0625H20.9844C20.4432 11.0625 20.0135 11.2853 19.8596 11.593H18.91C18.0346 11.593 17.7163 12.0864 17.8967 12.7337L18.2839 14.0388L18.2786 14.0335ZM30.2952 16.1715H23.9394C22.247 16.1715 21.4565 16.2882 20.9154 16.8718C20.3371 16.3095 19.8808 16.1768 18.1885 16.1768H11.578V12.7655H13.6577C13.8646 12.7655 14.0344 12.8079 14.1458 12.8663C14.2307 12.9141 14.3792 13.0149 14.4906 13.1634C14.6286 13.3544 15.8594 15.1582 15.8594 15.1582H19.4087C19.4087 15.1582 19.7376 14.4738 19.9392 13.9963C20.1461 13.5136 20.0771 13.1793 19.6368 13.1422C19.2654 13.1157 19.032 13.2005 18.9949 13.3544L18.8357 12.8186C18.7402 12.548 18.8092 12.3464 19.1859 12.3464H20.3371C20.3371 12.3464 20.3583 11.975 20.995 11.975H22.889L22.3531 12.4684V15.1582H26.035C26.035 15.1582 27.2075 13.3544 27.3454 13.1634C27.4515 13.0149 27.6054 12.9141 27.685 12.8663C27.7964 12.8079 27.9661 12.7549 28.1731 12.7549H30.2899V16.1768L30.2952 16.1715Z" fill="white"/>
<path d="M19.3516 27.7633C19.4895 27.7156 19.6115 27.6201 19.6805 27.498H19.6858V28.3522C19.6858 28.4371 19.6805 28.5061 19.7601 28.5591L19.4418 28.5644C19.5372 28.5114 19.5266 28.4424 19.5266 28.3522V27.7686H19.3516V27.7633Z" fill="white"/>
<path d="M20.1321 28.5018C20.3815 28.4541 20.599 28.2313 20.599 27.9766C20.599 27.8228 20.5141 27.653 20.3337 27.653C20.2011 27.653 20.1109 27.7538 20.1109 27.8811C20.1109 28.019 20.2011 28.1305 20.3443 28.1305C20.4027 28.1305 20.4557 28.1145 20.5035 28.0827L20.4027 28.21C20.3655 28.226 20.3178 28.2313 20.2753 28.2313C20.095 28.2313 19.957 28.0986 19.957 27.9182C19.957 27.6954 20.1374 27.5469 20.3549 27.5469C20.5937 27.5469 20.7528 27.7326 20.7528 27.9607C20.7528 28.1305 20.6573 28.3002 20.5247 28.4063C20.3868 28.5177 20.2276 28.5708 20.0578 28.592L20.1321 28.4965V28.5018Z" fill="white"/>
<path d="M21.3469 28.2354C21.2143 28.2354 21.1029 28.2301 21.0233 28.2248L21.3469 27.6784V28.2354ZM21.3469 28.3575V28.3946C21.3469 28.4742 21.3575 28.5272 21.2727 28.5591L21.5698 28.5644C21.5008 28.5272 21.5008 28.4529 21.5008 28.3893V28.3575H21.6228L21.6971 28.1771C21.644 28.2195 21.5751 28.2407 21.5008 28.2407V27.5723H21.2886L20.8164 28.3628H21.3522L21.3469 28.3575Z" fill="white"/>
<path d="M22.4279 27.636C22.3271 27.6519 22.2051 27.7261 22.1308 27.7951C22.0247 27.8906 21.9664 28.0179 21.9664 28.1612C21.9664 28.315 22.0565 28.4848 22.2316 28.4848C22.3643 28.4848 22.4438 28.384 22.4438 28.2514C22.4438 28.1028 22.3643 28.002 22.2104 28.002C22.152 28.002 22.0937 28.0179 22.0406 28.0498L22.1414 27.9278C22.1839 27.9065 22.2263 27.9012 22.2741 27.9012C22.4651 27.9012 22.603 28.0286 22.603 28.2195C22.603 28.4318 22.4332 28.5856 22.221 28.5856C21.9823 28.5856 21.8125 28.3946 21.8125 28.1612C21.8125 27.8004 22.1786 27.567 22.5075 27.5352L22.4332 27.6307L22.4279 27.636Z" fill="white"/>
<path d="M50.9809 30.248C52.111 30.248 52.9704 30.7945 52.9704 31.7707C52.9704 32.7468 52.042 33.4047 51.0605 33.4047C50.843 33.4047 50.6255 33.3782 50.4239 33.2827C51.1719 33.2402 51.9783 32.7787 51.9783 31.9457C51.9783 31.1818 51.4372 30.8794 50.7422 30.8794C50.53 30.8794 50.3337 30.8953 50.1321 30.9324V34.8478C50.1321 35.3358 50.1215 35.6807 50.583 35.9407V35.9672H48.8535V35.9407C49.2939 35.7815 49.2461 35.1395 49.2461 34.7523V31.4789C49.2461 31.0863 49.2992 30.455 48.8641 30.2799V30.2534H50.9703L50.9809 30.248Z" fill="white"/>
<path d="M57.4043 35.3889C57.0223 35.8929 56.3114 36.0998 55.7013 36.0998C55.1283 36.0998 54.5235 35.9194 54.1309 35.495C53.6694 34.991 53.6906 34.4127 53.6906 33.7867V31.463C53.6906 31.0704 53.7542 30.439 53.3086 30.2746V30.248H54.9585V30.2746C54.5235 30.439 54.5766 31.0704 54.5766 31.463V33.7867C54.5766 34.9379 55.0647 35.4791 55.9613 35.4791C56.4493 35.4791 56.9374 35.2775 57.2292 34.869C57.4202 34.609 57.4149 34.3915 57.4149 34.0785V31.4683C57.4149 31.0757 57.468 30.4443 57.0329 30.2799V30.2534H58.6829V30.2799C58.2531 30.4443 58.3009 31.0757 58.3009 31.4789V34.7523C58.3009 35.1395 58.2531 35.7762 58.6935 35.9407V35.9672H57.4202V35.3942L57.4043 35.3889Z" fill="white"/>
<path d="M63.0351 31.2832C62.7008 30.9384 62.1597 30.7421 61.6716 30.7421C61.1835 30.7421 60.5469 30.9278 60.5469 31.5273C60.5469 32.7157 63.5338 32.6998 63.5338 34.3073C63.5338 35.2357 62.5629 36.1005 61.2101 36.1005C60.6848 36.1005 60.1543 36.0262 59.6556 35.8405L59.4062 34.7529C59.9156 35.1933 60.6318 35.4744 61.3056 35.4744C61.8043 35.4744 62.5523 35.1827 62.5523 34.5672C62.5523 33.2144 59.5654 33.4584 59.5654 31.6175C59.5654 30.5246 60.6848 30.1055 61.7459 30.1055C62.1809 30.1055 62.6266 30.1638 63.0404 30.2965V31.2779L63.0351 31.2832Z" fill="white"/>
<path d="M67.2467 33.1766H65.5384L66.3979 30.9908L67.2467 33.1766ZM67.5014 33.8185L67.9682 35.0441C68.207 35.6489 68.2759 35.7497 67.8515 35.9407V35.9672H69.6288V35.9407C69.1354 35.686 68.9763 35.2032 68.78 34.7045L66.9708 30.248H65.5968V30.2746C66.0159 30.4019 65.8514 30.7733 65.7294 31.081L64.281 34.6992C64.0901 35.1926 63.9468 35.6807 63.4375 35.9353V35.9619H65.0397V35.9353C64.6206 35.7762 64.6789 35.5268 64.8646 35.0387L65.3156 33.8132H67.5014V33.8185Z" fill="white"/>
<path d="M70.8337 34.8324C70.8337 35.3205 70.8231 35.6653 71.2846 35.9359V35.9624H69.7461V35.9359C70.2077 35.6653 70.2077 35.3205 70.2077 34.8324V31.368C70.2077 30.8852 70.2077 30.5351 69.7567 30.2804V30.2539H71.0247V30.2645C71.0618 30.3706 71.0936 30.4131 71.152 30.4767L71.274 30.6518L74.4572 34.6573V31.368C74.4572 30.8852 74.4625 30.5351 74.001 30.2804V30.2539H75.5289V30.2804C75.0779 30.5404 75.0779 30.8852 75.0779 31.368V36.2436C74.4625 36.0314 74.1973 35.7502 73.81 35.2515L70.8337 31.4741V34.8324Z" fill="white"/>
<path d="M79.6774 34.8324C79.6774 35.3205 79.6668 35.6653 80.1231 35.9359V35.9624H78.5898V35.9359C79.0514 35.6653 79.0514 35.3205 79.0514 34.8324V31.368C79.0514 30.8852 79.0514 30.5351 78.6005 30.2804V30.2539H79.8684V30.2645C79.9056 30.3706 79.9374 30.4131 80.0011 30.4767L80.1231 30.6518L83.301 34.6573V31.368C83.301 30.8852 83.3063 30.5351 82.85 30.2804V30.2539H84.3726V30.2804C83.9217 30.5404 83.9217 30.8852 83.9217 31.368V36.2436C83.301 36.0314 83.0357 35.7502 82.6537 35.2515L79.6774 31.4741V34.8324Z" fill="white"/>
<path d="M88.1181 33.1766H86.4098L87.2693 30.9908L88.1234 33.1766H88.1181ZM88.3675 33.8185L88.8343 35.0441C89.0678 35.6489 89.1367 35.7497 88.7123 35.9407V35.9672H90.4896V35.9407C89.9962 35.686 89.837 35.2032 89.6407 34.7045L87.8316 30.248H86.4628V30.2746C86.8767 30.4019 86.7175 30.7733 86.5902 31.081L85.1365 34.6992C84.9455 35.1926 84.797 35.6807 84.293 35.9353V35.9619H85.8899V35.9353C85.4761 35.7762 85.5344 35.5268 85.7148 35.0387L86.1657 33.8132H88.3568L88.3675 33.8185Z" fill="white"/>
<path d="M92.4323 34.831C92.4323 35.3297 92.427 35.664 92.8832 35.9346V35.9611H91.1696V35.9346C91.5993 35.7701 91.5516 35.1335 91.5516 34.7462V30.8733H90.7876C90.4109 30.8733 90.0237 30.9688 89.7531 31.2234H89.7266L90.0343 30.1836H90.0608C90.1616 30.226 90.2783 30.226 90.395 30.242H93.8488C93.9973 30.242 94.1353 30.2366 94.2467 30.1836H94.2732L93.992 31.2234H93.9655C93.8541 30.921 93.5039 30.8733 93.2175 30.8733H92.4376V34.831H92.4323Z" fill="white"/>
<path d="M95.2693 31.4736C95.2693 31.0757 95.3329 30.439 94.8926 30.2746V30.248H96.5372V30.2746C96.1075 30.439 96.1552 31.081 96.1552 31.4736V34.747C96.1552 35.1342 96.1022 35.7709 96.5372 35.9353V35.9619H94.8926V35.9353C95.317 35.7762 95.2693 35.1342 95.2693 34.747V31.4736Z" fill="white"/>
<path d="M100.171 30.7305C101.546 30.7305 102.357 31.9507 102.357 33.224C102.357 34.4973 101.514 35.4841 100.193 35.4841C98.8717 35.4841 97.9698 34.232 97.9698 33.0224C97.9698 31.712 98.8292 30.7358 100.171 30.7358V30.7305ZM100.235 30.1045C98.4154 30.062 96.9883 31.4414 96.9883 33.0914C96.9883 34.8739 98.4313 36.1048 100.15 36.1048C101.869 36.1048 103.349 34.8209 103.349 33.0489C103.349 31.4892 102.06 30.0992 100.235 30.1045Z" fill="white"/>
<path d="M104.703 34.8324C104.703 35.3205 104.693 35.6653 105.154 35.9359V35.9624H103.621V35.9359C104.077 35.6653 104.077 35.3205 104.077 34.8324V31.368C104.077 30.8852 104.077 30.5351 103.626 30.2804V30.2539H104.889V30.2645C104.921 30.3706 104.958 30.4131 105.016 30.4767L105.138 30.6518L108.316 34.6573V31.368C108.316 30.8852 108.327 30.5351 107.865 30.2804V30.2539H109.393V30.2804C108.942 30.5404 108.942 30.8852 108.942 31.368V36.2436C108.322 36.0314 108.056 35.7502 107.674 35.2515L104.693 31.4741V34.8324H104.703Z" fill="white"/>
<path d="M113.106 33.1766H111.398L112.257 30.9908L113.106 33.1766ZM113.355 33.8185L113.822 35.0441C114.061 35.6489 114.125 35.7497 113.706 35.9407V35.9672H115.483V35.9407C114.989 35.686 114.836 35.2032 114.634 34.7045L112.825 30.248H111.451V30.2746C111.87 30.4019 111.705 30.7733 111.583 31.081L110.135 34.6992C109.944 35.1926 109.796 35.6807 109.297 35.9353V35.9619H110.888V35.9353C110.469 35.7762 110.533 35.5268 110.708 35.0387L111.164 33.8132H113.35L113.355 33.8185Z" fill="white"/>
<path d="M118.252 35.3417C118.841 35.3735 119.355 35.1772 119.79 34.8112H119.817L119.371 35.9677H115.801V35.9412C116.241 35.782 116.193 35.1401 116.193 34.7528V31.4794C116.193 31.0815 116.246 30.4449 115.801 30.2804V30.2539H117.461V30.2804C117.01 30.4449 117.079 31.0868 117.079 31.4794V35.2674L118.257 35.347L118.252 35.3417Z" fill="white"/>
<path d="M126.3 35.3889C125.918 35.8929 125.207 36.0998 124.597 36.0998C123.987 36.0998 123.419 35.9194 123.027 35.495C122.565 34.991 122.581 34.4127 122.581 33.7867V31.463C122.581 31.0704 122.645 30.439 122.199 30.2746V30.248H123.849V30.2746C123.419 30.439 123.467 31.0704 123.467 31.463V33.7867C123.467 34.9379 123.95 35.4791 124.847 35.4791C125.329 35.4791 125.828 35.2775 126.115 34.869C126.3 34.609 126.295 34.3915 126.295 34.0785V31.4683C126.295 31.0757 126.348 30.4443 125.913 30.2799V30.2534H127.563L127.574 30.2799C127.128 30.4443 127.181 31.0757 127.181 31.4789V34.7523C127.181 35.1395 127.128 35.7762 127.574 35.9407V35.9672H126.295V35.3942L126.3 35.3889Z" fill="white"/>
<path d="M129.446 34.8324C129.446 35.3205 129.43 35.6653 129.892 35.9359V35.9624H128.354V35.9359C128.815 35.6653 128.815 35.3205 128.815 34.8324V31.368C128.815 30.8852 128.815 30.5351 128.364 30.2804V30.2539H129.632V30.2645C129.664 30.3706 129.701 30.4131 129.759 30.4767L129.887 30.6518L133.059 34.6573V31.368C133.059 30.8852 133.07 30.5351 132.614 30.2804V30.2539H134.142V30.2804C133.691 30.5404 133.691 30.8852 133.691 31.368V36.2436C133.075 36.0314 132.805 35.7502 132.423 35.2515L129.446 31.4741V34.8324Z" fill="white"/>
<path d="M135.409 31.4736C135.409 31.0757 135.472 30.439 135.021 30.2746V30.248H136.677V30.2746C136.242 30.439 136.295 31.081 136.295 31.4736V34.747C136.295 35.1342 136.242 35.7709 136.677 35.9353V35.9619H135.021V35.9353C135.467 35.7762 135.409 35.1342 135.409 34.747V31.4736Z" fill="white"/>
<path d="M141.049 31.8243C141.283 31.2089 141.575 30.498 141.039 30.2804V30.2539H142.333L140.041 36.233C139.437 35.8298 139.235 35.7608 138.986 35.0764L137.675 31.5272C137.511 31.0868 137.378 30.5828 136.996 30.2857V30.2592H138.264L138.253 30.3653C138.253 30.5563 138.418 30.9807 138.492 31.1717L139.866 34.9438L141.049 31.8296V31.8243Z" fill="white"/>
<path d="M144.015 35.2351L145.118 35.3412C145.686 35.3942 146.286 35.2085 146.721 34.8266H146.747L146.355 35.9672H142.736V35.9407C143.182 35.7815 143.129 35.1396 143.129 34.7523V31.4789C143.129 31.081 143.182 30.4444 142.736 30.2799V30.2534H145.516C145.665 30.2534 145.813 30.2746 145.925 30.2109H145.951V31.2296H145.925C145.654 30.9112 145.299 30.8794 144.901 30.8794C144.593 30.8794 144.291 30.89 144.015 30.9431V32.5612H145.044C145.187 32.5612 145.32 32.5612 145.426 32.5081H145.447V33.4313H145.426C145.288 33.1819 144.922 33.1872 144.657 33.1872H144.015V35.2457V35.2351Z" fill="white"/>
<path d="M149.214 30.248C150.376 30.248 151.008 30.8582 151.008 31.6486C151.008 32.4391 150.339 33.0174 149.628 33.1766L150.88 34.7523C151.241 35.2032 151.788 35.6489 152.286 35.9672H151.485C151.024 35.9672 150.742 35.8505 150.477 35.5268L149.416 34.2164L148.615 32.9962C149.31 32.8901 150.116 32.5718 150.116 31.7548C150.116 31.1287 149.575 30.768 148.997 30.7945C148.795 30.7998 148.604 30.8263 148.403 30.8635V34.7576C148.403 35.1555 148.35 35.7868 148.79 35.946V35.9725H147.135V35.946C147.58 35.7868 147.511 35.1449 147.511 34.7576V31.4842C147.511 31.0863 147.58 30.4496 147.135 30.2852V30.2587H149.199L149.214 30.248Z" fill="white"/>
<path d="M155.495 31.2813C155.15 30.9365 154.62 30.7402 154.126 30.7402C153.633 30.7402 153.007 30.9258 153.007 31.5253C153.007 32.7137 155.999 32.6978 155.999 34.3053C155.999 35.2338 155.023 36.0985 153.67 36.0985C153.134 36.0985 152.609 36.0242 152.11 35.8386L151.855 34.751C152.37 35.1913 153.081 35.4725 153.76 35.4725C154.259 35.4725 155.007 35.1807 155.007 34.5653C155.007 33.2124 152.015 33.4565 152.015 31.6155C152.015 30.5226 153.134 30.1035 154.195 30.1035C154.635 30.1035 155.076 30.1619 155.495 30.2945V31.276V31.2813Z" fill="white"/>
<path d="M157.025 31.4736C157.025 31.0757 157.088 30.439 156.643 30.2746V30.248H158.287V30.2746C157.857 30.439 157.911 31.081 157.911 31.4736V34.747C157.911 35.1342 157.857 35.7709 158.287 35.9353V35.9619H156.643V35.9353C157.078 35.7762 157.025 35.1342 157.025 34.747V31.4736Z" fill="white"/>
<path d="M161.391 34.831C161.391 35.3297 161.391 35.664 161.847 35.9346V35.9611H160.123V35.9346C160.558 35.7701 160.505 35.1335 160.505 34.7462V30.8733H159.741C159.369 30.8733 158.977 30.9688 158.706 31.2234H158.68L158.982 30.1836H159.009C159.109 30.226 159.226 30.226 159.338 30.242H162.797C162.945 30.242 163.083 30.2366 163.2 30.1836H163.221L162.945 31.2234H162.919C162.807 30.921 162.452 30.8733 162.171 30.8733H161.385V34.831H161.391Z" fill="white"/>
<path d="M165.862 34.8313C165.862 35.3565 165.862 35.6165 166.308 35.9348V35.9613H164.616V35.9348C165.04 35.7173 164.976 35.1549 164.976 34.7464V33.4572L163.539 31.1388C163.305 30.7568 163.13 30.465 162.711 30.2422H163.501C163.777 30.2422 164.037 30.3059 164.149 30.4862L165.539 32.7516L166.616 31.1388C166.764 30.9213 166.966 30.5075 166.478 30.2687V30.2422H167.995L165.862 33.4572V34.826V34.8313Z" fill="white"/>
<path d="M114.385 10.7706H112.56V6.33538H110.363V17.832C109.61 18.6384 108.347 18.5907 108.347 18.5907H102.177C102.087 18.5907 102.018 18.5164 102.018 18.4262V9.4443H108.623V7.66702H99.8164V18.4262C99.8164 19.4926 100.681 20.3467 101.753 20.3467H108.289C108.289 20.3467 109.366 20.4475 110.358 19.8799V26.0712H112.554V12.5479H114.379V26.0712H116.571V6.33008H114.379V10.7653L114.385 10.7706Z" fill="white"/>
<path d="M48.8594 19.4439H57.1887V26.0596H59.3851V19.4439H67.6826V17.6719H48.8594V19.4439Z" fill="white"/>
<path d="M53.0296 15.8625H63.5076C64.5793 15.8625 65.4441 14.9977 65.4441 13.926V6.50391H63.253V9.50671H53.2843V6.50391H51.0879V13.926C51.0879 14.9977 51.958 15.8625 53.0243 15.8625H53.0296ZM63.253 11.2787V13.9313C63.253 14.0215 63.1787 14.0958 63.0885 14.0958H53.4541C53.3639 14.0958 53.2896 14.0215 53.2896 13.9313V11.2787H63.253Z" fill="white"/>
<path d="M90.4112 6.32422H88.2148V20.6486H90.4112V12.5367H93.3239V10.7648H90.4112V6.32422Z" fill="white"/>
<path d="M79.0851 23.8589V18.543H76.8887V23.8589C76.8887 24.9253 77.7534 25.79 78.8198 25.79H90.4119V24.0234H79.2442C79.154 24.0234 79.0798 23.9491 79.0798 23.8589H79.0851Z" fill="white"/>
<path d="M80.5914 8.67889V6.76367H78.4003V8.67889C78.4003 14.345 72.9729 15.5121 72.6016 15.5864L74.0817 17.0666C75.3922 16.6581 78.1934 15.5281 79.4985 13.0505C80.7983 15.5227 83.5942 16.6528 84.9046 17.0613L86.3848 15.5811C85.9285 15.4909 80.5967 14.2972 80.5967 8.67358L80.5914 8.67889Z" fill="white"/>
<path d="M160.382 14.7383H158.212V22.4045H155.565V14.7383H153.4V22.4045H148.779V24.1605H167.13V22.4045H160.382V14.7383Z" fill="white"/>
<path d="M163.045 15.0139C163.045 18.1281 162.27 19.9319 162.27 19.9319H164.467C164.467 19.9319 165.225 18.1281 165.225 15.0139V7.23633H150.721V8.98708H163.056V15.0139H163.045Z" fill="white"/>
<path d="M140.626 10.7653V6.33008H138.424V17.9593H140.626V12.5426H143.543V10.7653H140.626Z" fill="white"/>
<path d="M140.62 18.8281H126.715V20.6054H138.424V26.0593H140.625V18.8387H140.62V18.8281Z" fill="white"/>
<path d="M135.06 12.6588C135.06 11.6137 134.667 10.6534 134.01 9.89474H136.721V8.10685H131.161V5.89453H128.959V8.10685H123.404V9.89474H126.11C125.452 10.6587 125.054 11.6137 125.054 12.6588C125.054 15.1523 127.298 17.1736 130.062 17.1736C132.827 17.1736 135.071 15.1523 135.071 12.6588H135.06ZM127.261 12.6429C127.261 11.1256 128.508 9.90004 130.052 9.90004C131.596 9.90004 132.848 11.1309 132.848 12.6429C132.848 14.1549 131.596 15.3857 130.052 15.3857C128.508 15.3857 127.261 14.1549 127.261 12.6429Z" fill="white"/>
</g>
<defs>
<clipPath id="clip0_307_2846">
<rect width="167.77" height="41.4292" fill="white" transform="translate(0.230469 0.330078)"/>
</clipPath>
</defs>
</svg>
