<svg width="154" height="151" viewBox="0 0 154 151" fill="none" xmlns="http://www.w3.org/2000/svg">
<path d="M88.311 11.325C91.447 11.325 93.9892 8.78982 93.9892 5.6625C93.9892 2.53519 91.447 0 88.311 0C85.175 0 82.6328 2.53519 82.6328 5.6625C82.6328 8.78982 85.175 11.325 88.311 11.325Z" fill="white" fill-opacity="0.2"/>
<path d="M88.311 11.325C91.447 11.325 93.9892 8.78982 93.9892 5.6625C93.9892 2.53519 91.447 0 88.311 0C85.175 0 82.6328 2.53519 82.6328 5.6625C82.6328 8.78982 85.175 11.325 88.311 11.325Z" fill="white" fill-opacity="0.2"/>
<path d="M63.6567 11.5696C66.7927 11.5696 69.3349 9.03445 69.3349 5.90713C69.3349 2.77982 66.7927 0.244629 63.6567 0.244629C60.5207 0.244629 57.9785 2.77982 57.9785 5.90713C57.9785 9.03445 60.5207 11.5696 63.6567 11.5696Z" fill="white" fill-opacity="0.2"/>
<path d="M40.5718 20.1954C43.7078 20.1954 46.25 17.6602 46.25 14.5329C46.25 11.4056 43.7078 8.87036 40.5718 8.87036C37.4358 8.87036 34.8936 11.4056 34.8936 14.5329C34.8936 17.6602 37.4358 20.1954 40.5718 20.1954Z" fill="white" fill-opacity="0.2"/>
<path d="M21.8393 36.1854C24.9753 36.1854 27.5176 33.6502 27.5176 30.5229C27.5176 27.3955 24.9753 24.8604 21.8393 24.8604C18.7034 24.8604 16.1611 27.3955 16.1611 30.5229C16.1611 33.6502 18.7034 36.1854 21.8393 36.1854Z" fill="white" fill-opacity="0.2"/>
<path d="M9.72802 57.6033C12.864 57.6033 15.4062 55.0681 15.4062 51.9408C15.4062 48.8135 12.864 46.2783 9.72802 46.2783C6.59203 46.2783 4.0498 48.8135 4.0498 51.9408C4.0498 55.0681 6.59203 57.6033 9.72802 57.6033Z" fill="white" fill-opacity="0.2"/>
<path d="M5.67821 81.8572C8.8142 81.8572 11.3564 79.322 11.3564 76.1947C11.3564 73.0674 8.8142 70.5322 5.67821 70.5322C2.54222 70.5322 0 73.0674 0 76.1947C0 79.322 2.54222 81.8572 5.67821 81.8572Z" fill="white" fill-opacity="0.2"/>
<path d="M10.1997 106.023C13.3357 106.023 15.8779 103.488 15.8779 100.361C15.8779 97.2332 13.3357 94.698 10.1997 94.698C7.06371 94.698 4.52148 97.2332 4.52148 100.361C4.52148 103.488 7.06371 106.023 10.1997 106.023Z" fill="white" fill-opacity="0.2"/>
<path d="M22.7319 127.196C25.8679 127.196 28.4101 124.661 28.4101 121.534C28.4101 118.407 25.8679 115.871 22.7319 115.871C19.5959 115.871 17.0537 118.407 17.0537 121.534C17.0537 124.661 19.5959 127.196 22.7319 127.196Z" fill="white" fill-opacity="0.2"/>
<path d="M41.7778 142.824C44.9138 142.824 47.456 140.289 47.456 137.162C47.456 134.034 44.9138 131.499 41.7778 131.499C38.6418 131.499 36.0996 134.034 36.0996 137.162C36.0996 140.289 38.6418 142.824 41.7778 142.824Z" fill="white" fill-opacity="0.2"/>
<path d="M65.0298 151C68.1658 151 70.708 148.465 70.708 145.338C70.708 142.21 68.1658 139.675 65.0298 139.675C61.8938 139.675 59.3516 142.21 59.3516 145.338C59.3516 148.465 61.8938 151 65.0298 151Z" fill="white" fill-opacity="0.2"/>
<path d="M89.6841 150.765C92.8201 150.765 95.3623 148.23 95.3623 145.103C95.3623 141.976 92.8201 139.44 89.6841 139.44C86.5481 139.44 84.0059 141.976 84.0059 145.103C84.0059 148.23 86.5481 150.765 89.6841 150.765Z" fill="white" fill-opacity="0.2"/>
<path d="M112.771 142.13C115.907 142.13 118.449 139.594 118.449 136.467C118.449 133.34 115.907 130.805 112.771 130.805C109.635 130.805 107.093 133.34 107.093 136.467C107.093 139.594 109.635 142.13 112.771 142.13Z" fill="white" fill-opacity="0.2"/>
<path d="M131.501 126.14C134.637 126.14 137.18 123.605 137.18 120.477C137.18 117.35 134.637 114.815 131.501 114.815C128.365 114.815 125.823 117.35 125.823 120.477C125.823 123.605 128.365 126.14 131.501 126.14Z" fill="white" fill-opacity="0.2"/>
<path d="M143.613 104.732C146.749 104.732 149.291 102.197 149.291 99.0692C149.291 95.9419 146.749 93.4067 143.613 93.4067C140.477 93.4067 137.935 95.9419 137.935 99.0692C137.935 102.197 140.477 104.732 143.613 104.732Z" fill="white" fill-opacity="0.2"/>
<path d="M147.663 80.4778C150.799 80.4778 153.341 77.9427 153.341 74.8153C153.341 71.688 150.799 69.1528 147.663 69.1528C144.527 69.1528 141.984 71.688 141.984 74.8153C141.984 77.9427 144.527 80.4778 147.663 80.4778Z" fill="white" fill-opacity="0.2"/>
<path d="M143.141 56.3023C146.277 56.3023 148.819 53.7671 148.819 50.6398C148.819 47.5125 146.277 44.9773 143.141 44.9773C140.005 44.9773 137.463 47.5125 137.463 50.6398C137.463 53.7671 140.005 56.3023 143.141 56.3023Z" fill="white" fill-opacity="0.2"/>
<path d="M130.609 35.1292C133.745 35.1292 136.287 32.594 136.287 29.4667C136.287 26.3394 133.745 23.8042 130.609 23.8042C127.473 23.8042 124.931 26.3394 124.931 29.4667C124.931 32.594 127.473 35.1292 130.609 35.1292Z" fill="white" fill-opacity="0.2"/>
<path d="M111.563 19.5108C114.699 19.5108 117.241 16.9756 117.241 13.8483C117.241 10.721 114.699 8.18579 111.563 8.18579C108.427 8.18579 105.885 10.721 105.885 13.8483C105.885 16.9756 108.427 19.5108 111.563 19.5108Z" fill="white" fill-opacity="0.2"/>
<path d="M84.203 34.004C86.2341 34.004 87.8806 32.3621 87.8806 30.3366C87.8806 28.3112 86.2341 26.6692 84.203 26.6692C82.1719 26.6692 80.5254 28.3112 80.5254 30.3366C80.5254 32.3621 82.1719 34.004 84.203 34.004Z" fill="white" fill-opacity="0.2"/>
<path d="M84.203 34.004C86.2341 34.004 87.8806 32.3621 87.8806 30.3366C87.8806 28.3112 86.2341 26.6692 84.203 26.6692C82.1719 26.6692 80.5254 28.3112 80.5254 30.3366C80.5254 32.3621 82.1719 34.004 84.203 34.004Z" fill="white" fill-opacity="0.2"/>
<path d="M68.2567 34.1605C70.2878 34.1605 71.9343 32.5186 71.9343 30.4931C71.9343 28.4676 70.2878 26.8257 68.2567 26.8257C66.2256 26.8257 64.5791 28.4676 64.5791 30.4931C64.5791 32.5186 66.2256 34.1605 68.2567 34.1605Z" fill="white" fill-opacity="0.2"/>
<path d="M53.3299 39.7448C55.361 39.7448 57.0075 38.1028 57.0075 36.0773C57.0075 34.0519 55.361 32.4099 53.3299 32.4099C51.2989 32.4099 49.6523 34.0519 49.6523 36.0773C49.6523 38.1028 51.2989 39.7448 53.3299 39.7448Z" fill="white" fill-opacity="0.2"/>
<path d="M41.2088 50.0824C43.2399 50.0824 44.8864 48.4404 44.8864 46.415C44.8864 44.3895 43.2399 42.7476 41.2088 42.7476C39.1778 42.7476 37.5312 44.3895 37.5312 46.415C37.5312 48.4404 39.1778 50.0824 41.2088 50.0824Z" fill="white" fill-opacity="0.2"/>
<path d="M33.3729 63.9301C35.404 63.9301 37.0505 62.2881 37.0505 60.2626C37.0505 58.2372 35.404 56.5952 33.3729 56.5952C31.3418 56.5952 29.6953 58.2372 29.6953 60.2626C29.6953 62.2881 31.3418 63.9301 33.3729 63.9301Z" fill="white" fill-opacity="0.2"/>
<path d="M30.7547 79.6171C32.7858 79.6171 34.4323 77.9751 34.4323 75.9497C34.4323 73.9242 32.7858 72.2822 30.7547 72.2822C28.7237 72.2822 27.0771 73.9242 27.0771 75.9497C27.0771 77.9751 28.7237 79.6171 30.7547 79.6171Z" fill="white" fill-opacity="0.2"/>
<path d="M33.6776 95.2455C35.7087 95.2455 37.3552 93.6035 37.3552 91.5781C37.3552 89.5526 35.7087 87.9106 33.6776 87.9106C31.6465 87.9106 30 89.5526 30 91.5781C30 93.6035 31.6465 95.2455 33.6776 95.2455Z" fill="white" fill-opacity="0.2"/>
<path d="M41.788 108.947C43.819 108.947 45.4655 107.305 45.4655 105.279C45.4655 103.254 43.819 101.612 41.788 101.612C39.7569 101.612 38.1104 103.254 38.1104 105.279C38.1104 107.305 39.7569 108.947 41.788 108.947Z" fill="white" fill-opacity="0.2"/>
<path d="M54.1053 119.049C56.1364 119.049 57.7829 117.407 57.7829 115.382C57.7829 113.356 56.1364 111.714 54.1053 111.714C52.0743 111.714 50.4277 113.356 50.4277 115.382C50.4277 117.407 52.0743 119.049 54.1053 119.049Z" fill="white" fill-opacity="0.2"/>
<path d="M69.1395 124.34C71.1706 124.34 72.8171 122.698 72.8171 120.673C72.8171 118.647 71.1706 117.005 69.1395 117.005C67.1084 117.005 65.4619 118.647 65.4619 120.673C65.4619 122.698 67.1084 124.34 69.1395 124.34Z" fill="white" fill-opacity="0.2"/>
<path d="M85.0858 124.183C87.1169 124.183 88.7634 122.541 88.7634 120.516C88.7634 118.49 87.1169 116.848 85.0858 116.848C83.0547 116.848 81.4082 118.49 81.4082 120.516C81.4082 122.541 83.0547 124.183 85.0858 124.183Z" fill="white" fill-opacity="0.2"/>
<path d="M100.012 118.599C102.043 118.599 103.689 116.957 103.689 114.932C103.689 112.906 102.043 111.264 100.012 111.264C97.9805 111.264 96.334 112.906 96.334 114.932C96.334 116.957 97.9805 118.599 100.012 118.599Z" fill="white" fill-opacity="0.2"/>
<path d="M112.133 108.262C114.164 108.262 115.81 106.62 115.81 104.595C115.81 102.569 114.164 100.927 112.133 100.927C110.102 100.927 108.455 102.569 108.455 104.595C108.455 106.62 110.102 108.262 112.133 108.262Z" fill="white" fill-opacity="0.2"/>
<path d="M119.969 94.414C122 94.414 123.646 92.772 123.646 90.7465C123.646 88.7211 122 87.0791 119.969 87.0791C117.938 87.0791 116.291 88.7211 116.291 90.7465C116.291 92.772 117.938 94.414 119.969 94.414Z" fill="white" fill-opacity="0.2"/>
<path d="M122.587 78.7272C124.618 78.7272 126.264 77.0852 126.264 75.0598C126.264 73.0343 124.618 71.3923 122.587 71.3923C120.556 71.3923 118.909 73.0343 118.909 75.0598C118.909 77.0852 120.556 78.7272 122.587 78.7272Z" fill="white" fill-opacity="0.2"/>
<path d="M119.665 63.0892C121.696 63.0892 123.343 61.4473 123.343 59.4218C123.343 57.3964 121.696 55.7544 119.665 55.7544C117.634 55.7544 115.987 57.3964 115.987 59.4218C115.987 61.4473 117.634 63.0892 119.665 63.0892Z" fill="white" fill-opacity="0.2"/>
<path d="M111.555 49.3978C113.586 49.3978 115.232 47.7559 115.232 45.7304C115.232 43.705 113.586 42.063 111.555 42.063C109.523 42.063 107.877 43.705 107.877 45.7304C107.877 47.7559 109.523 49.3978 111.555 49.3978Z" fill="white" fill-opacity="0.2"/>
<path d="M99.2362 39.2951C101.267 39.2951 102.914 37.6531 102.914 35.6276C102.914 33.6022 101.267 31.9602 99.2362 31.9602C97.2051 31.9602 95.5586 33.6022 95.5586 35.6276C95.5586 37.6531 97.2051 39.2951 99.2362 39.2951Z" fill="white" fill-opacity="0.2"/>
<path d="M80.7016 53.3096C81.7849 53.3096 82.663 52.4339 82.663 51.3537C82.663 50.2734 81.7849 49.3977 80.7016 49.3977C79.6184 49.3977 78.7402 50.2734 78.7402 51.3537C78.7402 52.4339 79.6184 53.3096 80.7016 53.3096Z" fill="white" fill-opacity="0.2"/>
<path d="M80.7016 53.3096C81.7849 53.3096 82.663 52.4339 82.663 51.3537C82.663 50.2734 81.7849 49.3977 80.7016 49.3977C79.6184 49.3977 78.7402 50.2734 78.7402 51.3537C78.7402 52.4339 79.6184 53.3096 80.7016 53.3096Z" fill="white" fill-opacity="0.2"/>
<path d="M72.1694 53.388C73.2526 53.388 74.1308 52.5123 74.1308 51.432C74.1308 50.3518 73.2526 49.4761 72.1694 49.4761C71.0862 49.4761 70.208 50.3518 70.208 51.432C70.208 52.5123 71.0862 53.388 72.1694 53.388Z" fill="white" fill-opacity="0.2"/>
<path d="M64.186 56.3704C65.2692 56.3704 66.1474 55.4947 66.1474 54.4145C66.1474 53.3342 65.2692 52.4585 64.186 52.4585C63.1027 52.4585 62.2246 53.3342 62.2246 54.4145C62.2246 55.4947 63.1027 56.3704 64.186 56.3704Z" fill="white" fill-opacity="0.2"/>
<path d="M57.7133 61.9058C58.7966 61.9058 59.6747 61.0301 59.6747 59.9499C59.6747 58.8696 58.7966 57.9939 57.7133 57.9939C56.6301 57.9939 55.752 58.8696 55.752 59.9499C55.752 61.0301 56.6301 61.9058 57.7133 61.9058Z" fill="white" fill-opacity="0.2"/>
<path d="M53.5161 69.3091C54.5993 69.3091 55.4775 68.4334 55.4775 67.3532C55.4775 66.2729 54.5993 65.3972 53.5161 65.3972C52.4328 65.3972 51.5547 66.2729 51.5547 67.3532C51.5547 68.4334 52.4328 69.3091 53.5161 69.3091Z" fill="white" fill-opacity="0.2"/>
<path d="M52.1235 77.7007C53.2067 77.7007 54.0849 76.825 54.0849 75.7448C54.0849 74.6645 53.2067 73.7888 52.1235 73.7888C51.0403 73.7888 50.1621 74.6645 50.1621 75.7448C50.1621 76.825 51.0403 77.7007 52.1235 77.7007Z" fill="white" fill-opacity="0.2"/>
<path d="M53.6821 86.0523C54.7653 86.0523 55.6435 85.1766 55.6435 84.0963C55.6435 83.0161 54.7653 82.1404 53.6821 82.1404C52.5988 82.1404 51.7207 83.0161 51.7207 84.0963C51.7207 85.1766 52.5988 86.0523 53.6821 86.0523Z" fill="white" fill-opacity="0.2"/>
<path d="M58.0171 93.3773C59.1003 93.3773 59.9784 92.5015 59.9784 91.4213C59.9784 90.341 59.1003 89.4653 58.0171 89.4653C56.9338 89.4653 56.0557 90.341 56.0557 91.4213C56.0557 92.5015 56.9338 93.3773 58.0171 93.3773Z" fill="white" fill-opacity="0.2"/>
<path d="M64.5981 98.7762C65.6814 98.7762 66.5595 97.9005 66.5595 96.8202C66.5595 95.74 65.6814 94.8643 64.5981 94.8643C63.5149 94.8643 62.6367 95.74 62.6367 96.8202C62.6367 97.9005 63.5149 98.7762 64.5981 98.7762Z" fill="white" fill-opacity="0.2"/>
<path d="M72.6401 101.612C73.7233 101.612 74.6015 100.736 74.6015 99.6562C74.6015 98.5759 73.7233 97.7002 72.6401 97.7002C71.5569 97.7002 70.6787 98.5759 70.6787 99.6562C70.6787 100.736 71.5569 101.612 72.6401 101.612Z" fill="white" fill-opacity="0.2"/>
<path d="M81.1723 101.524C82.2556 101.524 83.1337 100.649 83.1337 99.5683C83.1337 98.488 82.2556 97.6123 81.1723 97.6123C80.0891 97.6123 79.2109 98.488 79.2109 99.5683C79.2109 100.649 80.0891 101.524 81.1723 101.524Z" fill="white" fill-opacity="0.2"/>
<path d="M89.1547 98.5413C90.238 98.5413 91.1161 97.6656 91.1161 96.5854C91.1161 95.5051 90.238 94.6294 89.1547 94.6294C88.0715 94.6294 87.1934 95.5051 87.1934 96.5854C87.1934 97.6656 88.0715 98.5413 89.1547 98.5413Z" fill="white" fill-opacity="0.2"/>
<path d="M95.6264 93.0157C96.7097 93.0157 97.5878 92.14 97.5878 91.0597C97.5878 89.9795 96.7097 89.1038 95.6264 89.1038C94.5432 89.1038 93.665 89.9795 93.665 91.0597C93.665 92.14 94.5432 93.0157 95.6264 93.0157Z" fill="white" fill-opacity="0.2"/>
<path d="M99.8237 85.6023C100.907 85.6023 101.785 84.7266 101.785 83.6464C101.785 82.5661 100.907 81.6904 99.8237 81.6904C98.7404 81.6904 97.8623 82.5661 97.8623 83.6464C97.8623 84.7266 98.7404 85.6023 99.8237 85.6023Z" fill="white" fill-opacity="0.2"/>
<path d="M101.216 77.221C102.3 77.221 103.178 76.3453 103.178 75.265C103.178 74.1848 102.3 73.3091 101.216 73.3091C100.133 73.3091 99.2549 74.1848 99.2549 75.265C99.2549 76.3453 100.133 77.221 101.216 77.221Z" fill="white" fill-opacity="0.2"/>
<path d="M99.6577 68.8599C100.741 68.8599 101.619 67.9842 101.619 66.904C101.619 65.8237 100.741 64.948 99.6577 64.948C98.5744 64.948 97.6963 65.8237 97.6963 66.904C97.6963 67.9842 98.5744 68.8599 99.6577 68.8599Z" fill="white" fill-opacity="0.2"/>
<path d="M95.3227 61.5342C96.406 61.5342 97.2841 60.6585 97.2841 59.5783C97.2841 58.498 96.406 57.6223 95.3227 57.6223C94.2395 57.6223 93.3613 58.498 93.3613 59.5783C93.3613 60.6585 94.2395 61.5342 95.3227 61.5342Z" fill="white" fill-opacity="0.2"/>
<path d="M88.7436 56.1358C89.8269 56.1358 90.705 55.2601 90.705 54.1798C90.705 53.0996 89.8269 52.2239 88.7436 52.2239C87.6604 52.2239 86.7822 53.0996 86.7822 54.1798C86.7822 55.2601 87.6604 56.1358 88.7436 56.1358Z" fill="white" fill-opacity="0.2"/>
</svg>
