<svg width="100" height="61" viewBox="0 0 100 61" fill="none" xmlns="http://www.w3.org/2000/svg">
<g clip-path="url(#clip0_307_3055)">
<g opacity="0.97">
<path d="M14.8198 25.3127C14.8198 29.5503 14.8198 34.579 14.933 39.6641L20.9854 40.2856V42.2067H0V40.2856L5.09079 39.7771C5.26048 34.0704 5.26048 28.2508 5.26048 22.3746V19.8885C5.26048 14.0124 5.26048 8.19273 5.09079 2.37307L0 1.92105V0H17.2521C30.0922 0 35.2396 4.57663 35.2396 12.5433C35.2396 19.606 30.4316 25.3127 16.9693 25.3127H14.8198ZM14.933 2.14706C14.8198 7.96672 14.8198 13.8994 14.8198 19.8885V23.2221H16.6865C23.2479 23.2221 26.4155 18.815 26.4155 12.4868C26.4155 5.65016 23.1348 2.14706 17.139 2.14706H14.933Z" fill="#005BAA"/>
</g>
<g opacity="0.97">
<path d="M68.7931 20.216L63.5892 20.9505L63.1932 60.6146H58.2156L33.2707 25.4706L33.6101 57.733L41.1897 58.5805V60.5016H25.4648V58.5805L30.6688 57.7895L31.0081 22.25L29.9334 20.668L25.9174 20.216V18.2949H39.5494L60.9872 47.9017L60.7044 21.007L53.1813 20.216V18.2949H68.7931V20.216Z" fill="#005BAA"/>
</g>
<g opacity="0.97">
<path d="M100 1.92105L94.174 2.76858L93.9477 24.4652C93.778 37.4605 88.2347 43.3367 78.2229 43.3367C68.211 43.3367 61.7061 38.7601 61.7061 25.4257V19.267C61.7061 13.7299 61.7061 8.02322 61.5364 2.37307L56.6719 1.92105V0H76.8088V1.92105L71.3786 2.42957C71.2089 7.96672 71.2089 13.6734 71.2089 19.267V24.5782C71.2089 34.918 74.7159 38.7036 81.2208 38.7036C87.7257 38.7036 91.572 34.579 91.4589 24.3522L91.2327 2.76858L84.7843 1.92105V0H100V1.92105Z" fill="#005BAA"/>
</g>
</g>
<defs>
<clipPath id="clip0_307_3055">
<rect width="100" height="60.6205" fill="white"/>
</clipPath>
</defs>
</svg>
